<svg id="Traces" xmlns="http://www.w3.org/2000/svg" viewBox="0 0 572.21 549.91"><title>truecommand_logo</title><g id="Logo"><path id="Shark" d="M577.26,246.41s-32.24,49.72-105.44,54l-11.64,22.66s-3.06,4.29-7.35,0l-14.09-23.27s-70.45,13.82-97.09-9.48l36.45-48.72-77.5-18.38,98-19s30.23-57.37,39.19-121.71c0,0-80.88,6.91-136.8,24,0,0,1.06-19.18-9.33-19.44l-58.05,19.71s-5.86,4.79,1.59,19.7l-49,19.45s-78-73.15-177.85-54.15c0,0,39.27,33.65,28.8,104.44,0,0-84.27,117.16,24.33,267.39L29,528.65s-.11,2.84,2.08,1.75,51.19-45,51.19-45,62.45,62.2,148.35,67.89h39.82s154.12-2.09,211.33-167.25C481.74,386.06,589.38,351.78,577.26,246.41ZM424.29,391s-9.35,81.5-99.45,63.92c0,0-95.28-24.37-13-130.92,0,0,44.44,61,108.36,62.51C420.17,386.49,425.78,385.74,424.29,391Z" transform="translate(-6 -3.39)" style="fill:#343433"/><path d="M557.83,4.69a1.85,1.85,0,0,0-2.06-1.12h0L296.89,94.92v4.9L557.31,7.06h0A1.83,1.83,0,0,0,557.83,4.69Z" transform="translate(-6 -3.39)" style="fill:#ff5656;stroke:#000;stroke-miterlimit:10;stroke-width:0.25px"/><path d="M470.72,92h7c4.17,0,7.59,1.44,7.59,6.12,0,4.52-3.42,6.46-7.59,6.46h-2.53v7.07h-4.46Zm6.63,9c2.34,0,3.59-1,3.59-2.93s-1.25-2.59-3.59-2.59h-2.17v5.52Zm2.62-.49,6.28,11.09h-5l-4.38-8.24Z" transform="translate(-6 -3.39)" style="fill:#343433"/><circle cx="471.46" cy="98.32" r="16.43" style="fill:none;stroke:#343433;stroke-miterlimit:10;stroke-width:4.5px"/></g></svg>
