<svg viewBox="0 0 62.856 71.149" xmlns="http://www.w3.org/2000/svg" width="24" height="24">
  <path fill="currentColor" d="M51.304 47.443 32.538 58.27h-3.58L10.192 47.433V25.772l1.785-3.104 16.98-9.798h3.581l16.97 9.798 1.796 3.103v-.612l11.552-6.674L30.806 0 0 17.78v35.58l30.805 17.79 31.73-18.32-11.231-8.2Z"/>
  <path fill="currentColor" d="m32.539 49.519 18.765-10.836v-4.141L32.54 45.367Zm16.97-26.85-7.588 4.39-8.957-5.18-.425-.239v4.1l5.864 3.384-5.864 3.384v4.1l18.765-10.836ZM10.193 38.682l8.469 4.889.041.02 10.255 5.927v-4.152L10.193 34.532Zm9.372-11.624-7.587-4.39-1.785 3.103 8.469 4.899.041.02 10.255 5.917v-4.173l-5.74-3.311 5.74-3.31V21.64l-.696.404Z"/>
  <path fill="currentColor" d="M32.539 12.87v12.87l-1.723-.996-1.858 1.069V12.87h3.581zM32.539 32.508v25.761h-3.581V32.435l1.858 1.069 1.723-.996z"/>
  <path fill="currentColor" d="m0 17.78 11.977 4.888 16.981-9.798h3.581l16.97 9.798 1.795 2.491 11.552-6.674L30.805 0 0 17.78z"/>
  <path fill="currentColor" d="m0 53.359 10.192-5.926V25.772l1.785-3.104L0 17.78v35.579z"/>
</svg>