<svg viewBox="0 0 24 24" xmlns="http://www.w3.org/2000/svg" width="24" height="24">
  <path fill="currentColor" d="M19.61 16.02 12.44 19.67h-1.37L3.89 16.01V8.7l.68-1.05 6.49-3.31h1.37l6.49 3.31.69 1.04v-.21l4.42-2.26L11.78.34 0 6.01v12.02l11.78 6.01 12.13-6.19-4.3-2.77Z"/>
  <path fill="currentColor" d="m12.44 16.72 7.17-3.66v-1.4l-7.16 3.66Zm6.49-9.07-2.9 1.48-3.42-1.75-.16-.08v1.38l2.24 1.14-2.24 1.14v1.38l7.17-3.66ZM3.89 13.06l3.24 1.65.02.01 3.92 2v-1.4L3.89 11.65Zm3.58-3.93-2.9-1.48-.68 1.05 3.24 1.65.02.01 3.92 2v-1.41l-2.19-1.12 2.19-1.12V7.31l-.27.14Z"/>
  <path fill="currentColor" d="M12.44 4.35v4.35l-.66-.34-.71.36V4.35h1.37zM12.44 10.98v8.69h-1.37V11.01l.71.36.66-.34z"/>
  <path fill="currentColor" d="m0 6.01 4.58 1.65 6.49-3.31h1.37l6.49 3.31.69.84 4.42-2.26L11.78.34 0 6.01z"/>
  <path fill="currentColor" d="m0 18.03 3.89-2V8.7l.68-1.05L0 6.01v12.02z"/>
</svg>