<?xml version="1.0" encoding="UTF-8"?>
<svg id="Layer_1" xmlns="http://www.w3.org/2000/svg" version="1.1" viewBox="0 0 48 48">
  <!-- Generator: Adobe Illustrator 29.5.0, SVG Export Plug-In . SVG Version: 2.1.0 Build 137)  -->
  <defs>
    <style>
      .st0 {
        fill: #71bf44;
      }

      .st1 {
        fill: #44beec;
      }

      .st2 {
        fill: #0095d5;
      }
    </style>
  </defs>
  <path class="st1" d="M11.3,14.6c-.93,0-1.72-.32-2.35-.95s-.95-1.42-.95-2.35.32-1.72.95-2.35,1.42-.95,2.35-.95,1.72.32,2.35.95.95,1.42.95,2.35-.32,1.72-.95,2.35-1.42.95-2.35.95Z"/>
  <path class="st2" d="M24,14.6c-.93,0-1.72-.32-2.35-.95s-.95-1.42-.95-2.35.32-1.72.95-2.35,1.42-.95,2.35-.95,1.72.32,2.35.95.95,1.42.95,2.35-.32,1.72-.95,2.35-1.42.95-2.35.95Z"/>
  <path class="st2" d="M36.7,14.6c-.93,0-1.72-.32-2.35-.95s-.95-1.42-.95-2.35.32-1.72.95-2.35,1.42-.95,2.35-.95,1.72.32,2.35.95.95,1.42.95,2.35-.32,1.72-.95,2.35-1.42.95-2.35.95Z"/>
  <path class="st2" d="M11.3,27.3c-.93,0-1.72-.32-2.35-.95s-.95-1.42-.95-2.35.32-1.72.95-2.35,1.42-.95,2.35-.95,1.72.32,2.35.95.95,1.42.95,2.35-.32,1.72-.95,2.35-1.42.95-2.35.95Z"/>
  <path class="st2" d="M24,27.3c-.93,0-1.72-.32-2.35-.95s-.95-1.42-.95-2.35.32-1.72.95-2.35,1.42-.95,2.35-.95,1.72.32,2.35.95.95,1.42.95,2.35-.32,1.72-.95,2.35-1.42.95-2.35.95Z"/>
  <path class="st2" d="M36.7,27.3c-.93,0-1.72-.32-2.35-.95s-.95-1.42-.95-2.35.32-1.72.95-2.35,1.42-.95,2.35-.95,1.72.32,2.35.95.95,1.42.95,2.35-.32,1.72-.95,2.35-1.42.95-2.35.95Z"/>
  <path class="st0" d="M36.7,40c-.93,0-1.72-.32-2.35-.95s-.95-1.42-.95-2.35.32-1.72.95-2.35,1.42-.95,2.35-.95,1.72.32,2.35.95.95,1.42.95,2.35-.32,1.72-.95,2.35-1.42.95-2.35.95Z"/>
  <path class="st2" d="M24,40c-.93,0-1.72-.32-2.35-.95s-.95-1.42-.95-2.35.32-1.72.95-2.35,1.42-.95,2.35-.95,1.72.32,2.35.95.95,1.42.95,2.35-.32,1.72-.95,2.35-1.42.95-2.35.95Z"/>
  <path class="st2" d="M11.3,40c-.93,0-1.72-.32-2.35-.95s-.95-1.42-.95-2.35.32-1.72.95-2.35,1.42-.95,2.35-.95,1.72.32,2.35.95.95,1.42.95,2.35-.32,1.72-.95,2.35-1.42.95-2.35.95Z"/>
</svg>