<?xml version="1.0" encoding="UTF-8"?>
<svg id="Layer_1" xmlns="http://www.w3.org/2000/svg" version="1.1" viewBox="0 0 16 16">
  <!-- Generator: Adobe Illustrator 29.6.1, SVG Export Plug-In . SVG Version: 2.1.1 Build 9)  -->
  <defs>
    <style>
      .st0 {
        fill: #fff;
      }
    </style>
  </defs>
  <path class="st0" d="M13.6,15.2c-.5,0-1-.1-1.4-.4s-.7-.7-.9-1.2h-4.1c-.9,0-1.6-.3-2.3-.9-.6-.6-.9-1.4-.9-2.3s.3-1.6.9-2.3c.6-.6,1.4-.9,2.3-.9h1.6c.4,0,.8-.2,1.1-.5s.5-.7.5-1.1-.2-.8-.5-1.1c-.3-.3-.7-.5-1.1-.5h-4.1c-.2.5-.5.9-.9,1.2s-.9.5-1.4.4c-.7,0-1.2-.2-1.7-.7-.5-.5-.7-1-.7-1.7s.2-1.2.7-1.7c.5-.5,1-.7,1.7-.7s1,.2,1.4.5.7.7.9,1.1h4.1c.9,0,1.6.3,2.3.9.6.6.9,1.4.9,2.3s-.3,1.6-.9,2.3c-.6.6-1.4.9-2.3.9h-1.6c-.4,0-.8.2-1.1.5-.3.3-.5.7-.5,1.1s.2.8.5,1.1c.3.3.7.5,1.1.5h4.1c.2-.5.5-.8.9-1.1.4-.3.9-.4,1.4-.5.7,0,1.2.2,1.7.7.5.5.7,1,.7,1.7s-.2,1.2-.7,1.7-1,.7-1.7.7M2.4,4c.2,0,.4,0,.6-.2.2-.2.2-.3.2-.6s0-.4-.2-.6-.3-.2-.6-.2-.4,0-.6.2-.2.3-.2.6c0,.2,0,.4.2.6.2.2.3.2.6.2"/>
</svg>