<?xml version="1.0" encoding="UTF-8"?>
<svg id="Layer_1" xmlns="http://www.w3.org/2000/svg" version="1.1" viewBox="0 0 16 16">
  <!-- Generator: Adobe Illustrator 29.6.1, SVG Export Plug-In . SVG Version: 2.1.1 Build 9)  -->
  <defs>
    <style>
      .st0 {
        fill: #fff;
      }
    </style>
  </defs>
  <path class="st0" d="M4,16c-.3,0-.5,0-.7-.3-.2-.2-.3-.4-.3-.7s0-.5.3-.7c.2-.2.4-.3.7-.3h8c.3,0,.5,0,.7.3.2.2.3.4.3.7s0,.5-.3.7c-.2.2-.4.3-.7.3h-8ZM8,11.9c-.3,0-.5,0-.7-.3-.2-.2-.3-.4-.3-.7V3.5l-1.9,1.9c-.2.2-.4.3-.7.3s-.5,0-.7-.3c-.2-.2-.3-.4-.3-.7s0-.5.3-.7L7.3.3c0-.1.2-.2.3-.2S7.9,0,8,0s.3,0,.4,0c.1,0,.2.1.3.2l3.6,3.7c.2.2.3.4.3.7s0,.5-.3.7c-.2.2-.4.3-.7.3s-.5,0-.7-.3l-1.9-1.9v7.4c0,.3,0,.5-.3.7-.2.2-.4.3-.7.3"/>
</svg>