<?xml version="1.0" encoding="UTF-8"?>
<svg id="Capa_1" xmlns="http://www.w3.org/2000/svg" version="1.1" viewBox="0 0 800 800">
  <!-- Generator: Adobe Illustrator 29.5.1, SVG Export Plug-In . SVG Version: 2.1.0 Build 141)  -->
  <g>
    <path d="M699.5,512.3v128.8c-90.1,52.2-181.1,105-273.5,158.6v-129.2c89.9-52,180.7-104.5,273.5-158.2Z"/>
    <path d="M100.5,641.9v-128.8c91.6,53,181.9,105.2,272.8,157.7v129.1c-91.8-53.2-182.3-105.6-272.8-158.1Z"/>
    <path d="M562.2,531.8c-46.4-26.9-91.6-53.2-136.7-79.3v-128.9c83.6,48.3,165.5,95.7,248.5,143.7-38,22-74.8,43.2-111.8,64.6Z"/>
    <path d="M124.6,467.1c83.5-48.3,164.9-95.4,248.2-143.6v129.1c-45.2,26.2-90.9,52.6-136.6,79-36.6-21.2-72.9-42.1-111.6-64.5Z"/>
    <path d="M510.5,561.5c-38.1,22.2-74.2,43.1-111.4,64.8-36.6-21.4-73.1-42.7-110.6-64.7,37.3-21.7,73.6-42.8,110.6-64.4,36.7,21.2,73.3,42.3,111.4,64.3Z"/>
  </g>
  <g>
    <path d="M100.5,255.3L189.3,0h49.6l88.8,255.3h-55.1l-15.5-48.5h-85.5l-15.5,48.5h-55.5ZM185.2,163.2h57.7l-28.9-89.9-28.9,89.9Z"/>
    <path d="M440.5,165.4v89.9h-51.8V0h91.4c58.8,0,95.5,27,95.5,81.8s-36.3,83.6-95.5,83.6h-39.6ZM472.7,121.7c35.9,0,51.1-12.6,51.1-40s-15.2-37.7-51.1-37.7h-32.2v77.7h32.2Z"/>
    <path d="M699.5,255.3h-51.8V0h51.8v255.3Z"/>
  </g>
</svg>