<?xml version="1.0" encoding="UTF-8" standalone="no"?> <svg xmlns:inkscape="http://www.inkscape.org/namespaces/inkscape" xmlns:sodipodi="http://sodipodi.sourceforge.net/DTD/sodipodi-0.dtd" xmlns="http://www.w3.org/2000/svg" xmlns:svg="http://www.w3.org/2000/svg" id="Capa_1" height="512" viewBox="0 0 512.006 512.006" width="512" version="1.1" sodipodi:docname="chat.svg" inkscape:version="1.4 (86a8ad7, 2024-10-11)"><defs id="defs2"></defs><rect style="fill:#000000;fill-opacity:1;stroke-width:1.71777;stroke-linecap:square;stroke-linejoin:round;paint-order:stroke fill markers" id="rect2" width="210.19144" height="64.434998" x="25.527536" y="307.56116"></rect><rect style="fill:#000000;fill-opacity:1;stroke-width:1.59927;stroke-linecap:square;stroke-linejoin:round;paint-order:stroke fill markers" id="rect2-7" width="182.19162" height="64.434998" x="265.0029" y="162.00119"></rect><path d="m 0.003,346.002 c 0,23.979 6.372,47.329 18.486,67.998 L 0.955,460.729 c -2.065,5.508 -0.718,11.719 3.442,15.879 4.193,4.213 10.455,5.48 15.879,3.442 l 47.729,-17.534 c 20.669,12.114 44.019,18.486 67.998,18.486 74.443,0 135,-60.557 135,-135 0,-74.443 -60.557,-135 -135,-135 -74.443,0 -136,60.557 -136,135 z m 196,-15 c 8.284,0 15,6.714 15,15 0,8.284 -6.716,15 -15,15 -8.284,0 -15,-6.716 -15,-15 0,-8.285 6.716,-15 15,-15 z m -60,0 c 8.284,0 15,6.714 15,15 0,8.284 -6.716,15 -15,15 -8.284,0 -15,-6.716 -15,-15 0,-8.285 6.716,-15 15,-15 z m -60,0 c 8.284,0 15,6.714 15,15 0,8.284 -6.716,15 -15,15 -8.284,0 -15,-6.716 -15,-15 0,-8.285 6.716,-15 15,-15 z" id="path1" style="fill:#ffffff"></path><path d="m 346.003,31.002 c -88.26,0 -160.124,69.353 -164.572,156.508 68.936,19.796 119.572,83.28 119.572,158.492 0,2.869 -0.286,5.667 -0.43,8.5 14.398,4.129 29.584,6.5 45.43,6.5 31.344,0 60.54,-8.899 85.497,-24.075 0.2,-0.121 0.421,-0.192 0.621,-0.315 l 59.315,23.32 c 5.656,2.252 11.99,0.857 16.172,-3.325 4.248,-4.248 5.552,-10.605 3.325,-16.172 l -23.32,-58.315 c 0.152,-0.245 0.249,-0.515 0.399,-0.762 16.198,-26.7 23.99,-57.085 23.99,-85.356 0.001,-91.128 -74.871,-165 -165.999,-165 z m -60,180 c -8.284,0 -15,-6.716 -15,-15 0,-8.286 6.716,-15 15,-15 8.284,0 15,6.714 15,15 0,8.284 -6.717,15 -15,15 z m 60,0 c -8.284,0 -15,-6.716 -15,-15 0,-8.286 6.716,-15 15,-15 8.284,0 15,6.714 15,15 0,8.284 -6.717,15 -15,15 z m 60,0 c -8.284,0 -15,-6.716 -15,-15 0,-8.286 6.716,-15 15,-15 8.284,0 15,6.714 15,15 0,8.284 -6.717,15 -15,15 z" id="path2" style="fill:#0095d5;fill-opacity:1"></path></svg> 