<?xml version="1.0" encoding="UTF-8"?>
<svg id="Layer_2" xmlns="http://www.w3.org/2000/svg" version="1.1" xmlns:xlink="http://www.w3.org/1999/xlink" viewBox="0 0 930.56 93.11">
  <!-- Generator: Adobe Illustrator 30.1.0, SVG Export Plug-In . SVG Version: 2.1.1 Build 136)  -->
  <defs>
    <style>
      .st0 {
        fill: #3cf;
      }

      .st1 {
        fill: #999;
      }

      .st2 {
        fill: #0095d5;
      }
    </style>
  </defs>
  <g id="Components">
    <g id="_2af23685-3d13-4686-8185-e958e22d31d1_1">
      <g id="logoMark">
        <polygon id="logoMark_PathItem_" class="st0" points="117.38 36.85 117.38 61.86 63.83 92.8 63.83 67.79 117.38 36.85"/>
        <path id="logoMark_PathItem_-2" class="st2" d="M53.59,67.79v25.01L0,61.86v-25.01l24.21,13.97s.05.04.09.05l29.28,16.91h0Z"/>
        <polygon id="logoMark_PathItem_-3" class="st1" points="80.37 46.41 58.71 58.92 37.03 46.41 58.71 33.89 80.37 46.41"/>
        <polygon id="logoMark_PathItem_-4" class="st2" points="112.28 27.99 90.6 40.5 63.83 25.03 63.83 0 112.28 27.99"/>
        <polygon id="logoMark_PathItem_-5" class="st0" points="53.59 0 53.59 25.03 26.78 40.49 5.11 27.99 53.59 0"/>
      </g>
      <g>
        <path class="st2" d="M172.82,91.8h-21.29V12.82h21.96c6.44,0,11.98,1.57,16.6,4.72s8.17,7.66,10.64,13.54c2.47,5.88,3.71,12.91,3.71,21.11s-1.25,15.3-3.74,21.21-6.1,10.46-10.8,13.63c-4.71,3.18-10.4,4.76-17.08,4.76h0ZM161.46,81.39h10.82c5.01,0,9.17-1.14,12.49-3.41,3.32-2.28,5.8-5.58,7.45-9.91s2.47-9.62,2.47-15.87-.82-11.45-2.46-15.77-4.07-7.6-7.3-9.83c-3.23-2.24-7.25-3.36-12.04-3.36h-11.43v58.16h0Z"/>
        <path class="st2" d="M232.27,92.99c-4.62,0-8.66-1.27-12.11-3.82s-6.12-6.11-8.03-10.68c-1.91-4.58-2.86-9.92-2.86-16.04s.95-11.52,2.86-16.12c1.91-4.6,4.58-8.18,8.03-10.72,3.45-2.55,7.48-3.82,12.11-3.82s8.66,1.27,12.11,3.82,6.12,6.12,8.03,10.72c1.91,4.6,2.86,9.98,2.86,16.12s-.95,11.47-2.86,16.04c-1.91,4.58-4.58,8.14-8.03,10.68-3.45,2.55-7.48,3.82-12.11,3.82ZM232.3,83.31c3,0,5.48-.95,7.45-2.85s3.43-4.44,4.38-7.6c.95-3.16,1.43-6.65,1.43-10.45s-.48-7.26-1.43-10.43-2.41-5.73-4.38-7.66-4.45-2.89-7.45-2.89-5.52.96-7.5,2.89-3.45,4.48-4.4,7.66-1.43,6.65-1.43,10.43.48,7.29,1.43,10.45,2.42,5.7,4.4,7.6,4.48,2.85,7.5,2.85Z"/>
        <path class="st2" d="M282.2,92.99c-4.77,0-8.88-1.3-12.31-3.91-3.44-2.61-6.07-6.21-7.92-10.82-1.84-4.6-2.76-9.87-2.76-15.81s.94-11.33,2.83-15.95c1.88-4.61,4.54-8.22,7.96-10.82,3.42-2.6,7.46-3.9,12.11-3.9,3.75,0,7.08.83,10.02,2.49,2.93,1.66,5.3,3.98,7.11,6.96s2.88,6.47,3.23,10.45h-9.34c-.51-2.78-1.69-5.17-3.52-7.17s-4.28-3.01-7.34-3.01c-2.68,0-5.01.84-7.02,2.53-2,1.68-3.56,4.08-4.67,7.17s-1.67,6.76-1.67,10.97.55,8.05,1.64,11.18c1.09,3.14,2.64,5.57,4.64,7.29s4.36,2.58,7.08,2.58c1.82,0,3.47-.41,4.96-1.21,1.49-.81,2.74-1.97,3.76-3.49,1.02-1.52,1.73-3.34,2.14-5.48h9.34c-.34,3.83-1.38,7.25-3.11,10.26s-4.05,5.37-6.95,7.1c-2.9,1.72-6.3,2.58-10.2,2.58h0Z"/>
        <path class="st2" d="M339.49,67.23v-34.67h9.63v59.24h-9.44v-10.26h-.51c-1.14,3.16-2.95,5.79-5.44,7.89s-5.59,3.14-9.3,3.14c-3.17,0-5.97-.84-8.4-2.53-2.43-1.68-4.34-4.18-5.72-7.5s-2.07-7.42-2.07-12.3v-37.68h9.6v36.29c0,4.04.93,7.25,2.79,9.64,1.86,2.39,4.28,3.59,7.26,3.59,1.8,0,3.59-.54,5.38-1.62s3.28-2.71,4.46-4.9c1.19-2.18,1.77-4.96,1.75-8.33h0Z"/>
        <path class="st2" d="M357.48,91.8v-59.24h9.22v9.64h.61c1.03-3.26,2.71-5.82,5.04-7.66,2.33-1.84,5.13-2.76,8.38-2.76s6.06.93,8.3,2.78c2.24,1.85,3.89,4.4,4.96,7.64h.51c1.18-3.16,3.05-5.69,5.62-7.58s5.63-2.83,9.18-2.83c4.47,0,8.13,1.68,10.97,5.05,2.84,3.37,4.25,8.45,4.25,15.23v39.72h-9.6v-38.64c0-4.01-.91-6.92-2.73-8.72-1.82-1.8-3.99-2.7-6.52-2.7-3.13,0-5.56,1.15-7.29,3.45s-2.6,5.25-2.6,8.85v37.76h-9.57v-39.37c0-3.21-.83-5.8-2.5-7.75s-3.84-2.93-6.52-2.93c-1.82,0-3.5.57-5.03,1.72-1.53,1.14-2.76,2.73-3.69,4.76s-1.4,4.38-1.4,7.06v36.52h-9.6.01Z"/>
        <path class="st2" d="M454.11,92.99c-4.86,0-9.04-1.25-12.54-3.76s-6.2-6.04-8.09-10.61-2.84-9.92-2.84-16.06.95-11.42,2.84-16.04,4.55-8.24,7.96-10.84c3.41-2.6,7.41-3.9,11.99-3.9,2.78,0,5.48.55,8.09,1.66s4.96,2.84,7.03,5.21c2.08,2.37,3.71,5.43,4.91,9.2s1.8,8.34,1.8,13.71v4.09h-39.21v-8.64h29.8c0-3.03-.51-5.73-1.54-8.08-1.03-2.35-2.47-4.21-4.32-5.57s-4.02-2.04-6.5-2.04c-2.7,0-5.05.79-7.05,2.37-2,1.58-3.54,3.64-4.62,6.17-1.08,2.53-1.62,5.28-1.62,8.23v6.75c0,3.96.58,7.33,1.75,10.1,1.17,2.78,2.8,4.89,4.9,6.34,2.1,1.45,4.55,2.18,7.35,2.18,1.82,0,3.48-.31,4.98-.94,1.5-.63,2.79-1.57,3.89-2.83,1.09-1.26,1.93-2.82,2.5-4.67l9.09,1.97c-.73,3.21-2.03,6.02-3.9,8.43-1.87,2.4-4.22,4.27-7.03,5.59-2.82,1.32-6.02,1.99-9.62,1.99h0Z"/>
        <path class="st2" d="M491.04,56.63v35.17h-9.6v-59.24h9.22v9.64h.61c1.13-3.14,2.92-5.66,5.35-7.56s5.5-2.85,9.2-2.85c3.36,0,6.3.84,8.83,2.53,2.53,1.68,4.48,4.18,5.88,7.5,1.39,3.32,2.09,7.42,2.09,12.3v37.68h-9.6v-36.29c0-4.29-.93-7.66-2.79-10.09-1.86-2.43-4.42-3.64-7.67-3.64-2.23,0-4.2.58-5.92,1.74s-3.08,2.85-4.08,5.07-1.49,4.9-1.49,8.04h-.03Z"/>
        <path class="st2" d="M553.95,32.56v9.26h-26.94v-9.26s26.94,0,26.94,0ZM534.23,18.37h9.6v56.04c0,2.24.28,3.91.84,5.03.56,1.12,1.28,1.88,2.17,2.28s1.86.6,2.91.6c.77,0,1.45-.06,2.02-.19.58-.13,1.03-.23,1.35-.31l1.73,9.53c-.56.26-1.35.52-2.38.79-1.03.27-2.31.42-3.85.44-2.53.05-4.88-.49-7.06-1.62-2.18-1.13-3.95-2.88-5.3-5.24-1.35-2.37-2.02-5.34-2.02-8.91V18.37h0Z"/>
        <path class="st2" d="M574.38,93.11c-3.13,0-5.95-.7-8.48-2.1-2.53-1.4-4.52-3.44-5.99-6.11s-2.2-5.95-2.2-9.83c0-3.34.54-6.09,1.61-8.25,1.07-2.16,2.51-3.87,4.33-5.13,1.82-1.26,3.85-2.21,6.1-2.85s4.54-1.13,6.87-1.47c2.95-.41,5.35-.75,7.19-1.02s3.18-.71,4.01-1.33,1.25-1.62,1.25-3.01v-.27c0-3.37-.79-5.98-2.36-7.83-1.57-1.85-3.91-2.78-7.02-2.78s-5.78.86-7.63,2.56c-1.85,1.71-3.13,3.61-3.84,5.69l-9.02-2.47c1.07-3.6,2.64-6.51,4.7-8.73,2.07-2.22,4.45-3.84,7.14-4.86,2.7-1.02,5.53-1.52,8.51-1.52,1.97,0,4.06.28,6.28.83,2.22.55,4.29,1.56,6.23,3.03s3.53,3.55,4.77,6.27c1.24,2.71,1.86,6.23,1.86,10.55v39.34h-9.38v-8.1h-.39c-.62,1.49-1.55,2.96-2.79,4.4s-2.84,2.64-4.78,3.59-4.28,1.43-7,1.43c0,0,.03-.03.03-.03ZM576.46,83.85c2.65,0,4.93-.63,6.82-1.89s3.34-2.91,4.33-4.95c1-2.04,1.49-4.24,1.49-6.58v-7.64c-.34.41-1,.79-1.98,1.14-.97.35-2.08.64-3.32.89-1.24.24-2.45.46-3.63.66s-2.16.35-2.95.48c-1.86.28-3.56.76-5.09,1.43s-2.75,1.63-3.66,2.87c-.91,1.25-1.37,2.9-1.37,4.96,0,2.85.88,5.01,2.63,6.46,1.76,1.45,3.99,2.18,6.71,2.18h.02,0Z"/>
        <path class="st2" d="M630,32.56v9.26h-26.94v-9.26s26.94,0,26.94,0ZM610.28,18.37h9.6v56.04c0,2.24.28,3.91.84,5.03.56,1.12,1.28,1.88,2.17,2.28s1.86.6,2.91.6c.77,0,1.45-.06,2.02-.19.58-.13,1.03-.23,1.35-.31l1.73,9.53c-.56.26-1.35.52-2.38.79-1.03.27-2.31.42-3.85.44-2.53.05-4.88-.49-7.06-1.62-2.18-1.13-3.95-2.88-5.3-5.24-1.35-2.37-2.02-5.34-2.02-8.91V18.37h0Z"/>
        <path class="st2" d="M640.92,23.42c-1.67,0-3.1-.68-4.29-2.03s-1.78-2.96-1.78-4.84.59-3.53,1.78-4.88,2.62-2.02,4.29-2.02,3.1.68,4.29,2.02c1.19,1.35,1.78,2.96,1.78,4.84s-.59,3.53-1.78,4.88c-1.19,1.35-2.62,2.03-4.29,2.03ZM636.07,91.8v-59.24h9.6v59.24h-9.6Z"/>
        <path class="st2" d="M674.84,92.99c-4.62,0-8.66-1.27-12.11-3.82s-6.12-6.11-8.03-10.68c-1.91-4.58-2.86-9.92-2.86-16.04s.95-11.52,2.86-16.12c1.91-4.6,4.58-8.18,8.03-10.72s7.48-3.82,12.11-3.82s8.66,1.27,12.11,3.82,6.12,6.12,8.03,10.72,2.86,9.98,2.86,16.12-.95,11.47-2.86,16.04-4.58,8.14-8.03,10.68-7.48,3.82-12.11,3.82ZM674.87,83.31c3,0,5.48-.95,7.45-2.85,1.97-1.9,3.43-4.44,4.38-7.6.95-3.16,1.43-6.65,1.43-10.45s-.48-7.26-1.43-10.43c-.95-3.18-2.41-5.73-4.38-7.66-1.97-1.93-4.45-2.89-7.45-2.89s-5.52.96-7.5,2.89-3.45,4.48-4.4,7.66-1.43,6.65-1.43,10.43.48,7.29,1.43,10.45,2.42,5.7,4.4,7.6c1.98,1.9,4.48,2.85,7.5,2.85Z"/>
        <path class="st2" d="M713.6,56.63v35.17h-9.6v-59.24h9.22v9.64h.61c1.13-3.14,2.92-5.66,5.35-7.56s5.5-2.85,9.2-2.85c3.36,0,6.3.84,8.83,2.53,2.53,1.68,4.48,4.18,5.88,7.5,1.39,3.32,2.09,7.42,2.09,12.3v37.68h-9.6v-36.29c0-4.29-.93-7.66-2.79-10.09s-4.42-3.64-7.67-3.64c-2.23,0-4.2.58-5.92,1.74s-3.08,2.85-4.08,5.07-1.49,4.9-1.49,8.04h-.03Z"/>
        <path class="st2" d="M773.69,91.8V12.82h9.92v34.32h32.78V12.82h9.95v78.98h-9.95v-34.44h-32.78v34.44h-9.92Z"/>
        <path class="st2" d="M866.75,67.23v-34.67h9.63v59.24h-9.44v-10.26h-.51c-1.13,3.16-2.95,5.79-5.44,7.89s-5.59,3.14-9.3,3.14c-3.17,0-5.97-.84-8.4-2.53-2.43-1.68-4.33-4.18-5.71-7.5s-2.07-7.42-2.07-12.3v-37.68h9.6v36.29c0,4.04.93,7.25,2.79,9.64s4.28,3.59,7.26,3.59c1.8,0,3.59-.54,5.38-1.62s3.28-2.71,4.46-4.9c1.19-2.18,1.77-4.96,1.75-8.33h0Z"/>
        <path class="st2" d="M885.51,91.8V12.82h9.6v29.35h.58c.56-1.23,1.36-2.66,2.41-4.28s2.51-3.04,4.37-4.26,4.32-1.83,7.38-1.83c3.98,0,7.53,1.21,10.66,3.63,3.13,2.42,5.58,5.9,7.37,10.45s2.68,10.03,2.68,16.43-.89,11.88-2.66,16.45c-1.78,4.56-4.22,8.07-7.32,10.53-3.1,2.46-6.65,3.68-10.63,3.68-3,0-5.44-.6-7.34-1.81-1.89-1.21-3.38-2.62-4.45-4.24s-1.89-3.06-2.47-4.32h-.8v9.22h-9.38v-.02h0ZM894.92,62.18c0,4.16.5,7.82,1.51,10.95,1.01,3.14,2.46,5.59,4.37,7.35,1.9,1.76,4.24,2.64,7,2.64s5.27-.92,7.19-2.76c1.93-1.84,3.39-4.34,4.38-7.5,1-3.16,1.49-6.72,1.49-10.68s-.49-7.42-1.46-10.53c-.97-3.11-2.43-5.57-4.37-7.37s-4.35-2.7-7.24-2.7-5.13.86-7.05,2.58-3.37,4.13-4.35,7.21-1.48,6.68-1.48,10.8h0Z"/>
      </g>
    </g>
  </g>
</svg>
