<?xml version="1.0" encoding="UTF-8"?>
<svg xmlns="http://www.w3.org/2000/svg" viewBox="0 0 1432.56 339.28">
  <defs>
    <style>
      .cls-1 {
        fill: #3cf;
      }

      .cls-2 {
        fill: #adadad;
      }

      .cls-3 {
        fill: #0095d5;
      }
    </style>
  </defs>
  <path class="cls-3" d="M0,148.37V7.83l55.04.25c8.55.04,16.52,1.82,24.41,4.74,15.88,5.88,27.83,17.96,34.06,33.71,7.6,19.19,7.35,46.53-.98,65.48-6.81,15.5-19.35,27.02-35.44,32.33-7.93,2.62-15.8,4.05-24.33,4.05l-52.75-.02ZM84.4,52.44c-3.48-7.56-9.38-12.94-17.15-15.91-4.82-1.58-9.74-2.83-14.95-2.84l-21.96-.05v89.16s21.27-.09,21.27-.09c6.63-.03,12.86-1.57,18.83-4.31,7.45-3.81,12.63-10.13,15.4-18.14,4.67-13.52,4.64-34.63-1.45-47.84Z"/>
  <polygon class="cls-3" points="0 322.49 0 181.95 30.34 182.14 30.37 240.12 90.11 240.11 90.12 182.08 120.09 182.09 120.09 322.6 90.11 322.62 90.11 264.82 30.35 264.82 30.35 322.61 0 322.49"/>
  <path class="cls-3" d="M1432.56,77.86v70.63h-29.34s-.32-65.76-.32-65.76c-.05-10.28-8.82-16.87-18.25-16.6-12.52.36-18.82,7.86-19.85,19.95l-.04,62.42-29.26-.03V42.98s28-.01,28-.01l.37,19.18c4.34-9.63,11.1-16.37,21.03-19.03,12.9-3.46,28.61-1.25,38.05,9.47,6.03,6.85,9.61,16.09,9.61,25.27Z"/>
  <path class="cls-1" d="M526.95,339.28h-.6l.03-42.98,85.89-49.98,4.54-2.43v42.95s-77.23,44.94-77.23,44.94l-7.05,4.07c-1.96,1.13-3.86,2.26-5.58,3.43Z"/>
  <path class="cls-3" d="M509.69,339.28h-.28l-15.15-9.05-67.84-39.45c-2.24-1.3-4.2-2.28-6.14-3.81v-42.92s11.4,6.66,11.4,6.66l49.25,28.65,28.86,16.82-.11,43.1Z"/>
  <path class="cls-3" d="M582.51,82.94v65.57s-28.56-.03-28.56-.03l-.02-68.14c-.88-8.9-7.7-14.8-16.47-14.41-9.68.43-15.77,8.26-16.38,17.73v64.83s-29.52.02-29.52.02V42.98s28.02.02,28.02.02c.39,6.76-.56,12.61.63,19.29,4.89-12.93,15.55-20.53,28.78-20.58,14.09-.45,25.66,5.91,30.24,20.42,6.75-17.34,24.72-22.98,41.14-19.51,10.96,2.31,19.41,10.37,22.58,20.99,1.29,4.33,1.6,8.39,1.95,12.99v71.88s-29.51.03-29.51.03l-.04-67.68c-.47-8.92-7.26-14.86-15.94-14.92-10.13-.07-16.29,6.65-16.9,17.03Z"/>
  <path class="cls-3" d="M365.31,252.14c2.29,11.29,2.29,22.36.46,33.46-3.62,21.96-18.84,38.99-42.27,38.8-13.28-.11-23.63-6.72-29.8-19.34-1.26,6.35-.2,11.6-.67,17.55h-28.95s0-140.47,0-140.47l29.52-.02.09,52.96c2.62-3.59,4.1-6.5,6.53-9.27,5.85-6.66,13.95-9.75,22.77-9.95,22.3-.51,38,14.94,42.33,36.3ZM335.16,283.79c4.4-15.84,2-43.49-19.38-44.46-7.5-.34-14.02,3.14-17.9,9.66-6.57,11.04-6.49,30.89-.01,41.96,3.57,6.1,9.43,9.8,16.43,9.91,11.16.17,18.06-6.97,20.86-17.08Z"/>
  <path class="cls-3" d="M974.19,108.66c2.27-7.96,8.17-13.49,15.4-16.83,16.69-7.71,43.56-4.77,47.01-11.18,3.12-5.81-.1-13.46-6.01-15.88-6.26-2.57-12.92-1.96-18.93.67-3.84,2.3-6.56,5.48-7.99,9.87l-27.18-2.2c4.61-21.88,23.59-31.13,44.28-31.42,9.72-.13,19.07,1.12,27.82,5.38,10.62,5.17,18.44,15.03,18.47,27.23l.17,74.19h-27.76s-.24-14.95-.24-14.95c-4.55,7.31-10.14,12.6-18.32,15.01-17.04,5.02-41.01.36-46.64-18.92-1.98-6.78-2.08-13.96-.08-20.97ZM1008.25,128.56c6.76,2.61,14.18,1.69,20.35-1.7,5.29-3.29,9.28-8.56,9.29-14.94l.02-11.81c-5.38,1.98-10.75,2.98-16.53,3.78-8.22,1.13-20.18,3.03-20.46,13.75-.13,4.96,2.35,9,7.33,10.92Z"/>
  <path class="cls-3" d="M736.22,116.27l27.16,1.79c-2.01,11.41-9.51,20.71-19.82,26.17-13.78,7.31-33.62,8.08-48.11,3.15-12.25-4.17-21.73-12.94-27.02-24.75-6.98-15.6-6.87-37.68.32-53.27,6.42-13.92,18.66-23.69,33.78-26.59,16.85-3.23,35.83.14,48.08,13.04,12.31,12.95,14.02,30.19,13.48,47.59h-71.64c-.19,12.01,5.93,22.04,18.1,24.57,10.25,1.49,21.16-.56,25.65-11.71ZM736.31,84.95c.14-11.63-8.2-20.28-19.18-21.24-12.78-1.11-23.9,7.8-24.69,21.21l43.87.02Z"/>
  <path class="cls-3" d="M832.92,66.17c-12.21-.16-19.19,6.9-20.52,18.48v63.84s-29.52.03-29.52.03V43.03s28.02-.07,28.02-.07l.43,19.14c4.3-9.49,10.92-16.13,20.75-18.9,6.65-1.87,13.65-2.02,20.52-.66,17.29,3.42,26.68,18.41,27.47,35.43v70.52s-29.27,0-29.27,0v-62.31c-.1-10.87-6.13-19.87-17.87-20.02Z"/>
  <path class="cls-3" d="M200.06,149.33c-23.31,4.3-46.87-2.86-58.08-24.98-8.04-15.86-8.16-38.91-.8-54.94,6.36-13.85,18.52-23.54,33.58-26.5,8.61-1.69,17.17-1.74,25.8-.04,16.78,3.31,30.06,14.85,35.56,31.18,4.77,14.14,4.8,29.85.01,43.96-5.59,16.47-19.1,28.18-36.08,31.31ZM199.03,124.1c14.17-10.47,14.26-44.44.89-55.71-7.24-6.11-18.42-5.68-25.25.84-10.04,9.57-10.55,29.18-6.8,41.77,1.56,5.23,4.21,9.88,8.64,13.08,6.49,4.69,15.84,4.96,22.52.02Z"/>
  <path class="cls-3" d="M1310.51,124.23c-11.61,23.03-36.95,30.08-60.64,24.54-15.28-3.57-27.15-14.26-32.85-28.72-6.04-15.35-5.7-36.24,1.43-51.25,10.84-22.83,34.98-30.42,58.65-26,14.97,2.79,27.24,12.17,33.79,25.83,7.75,16.16,7.73,39.52-.38,55.6ZM1274.87,124.85c15.8-9.89,15.66-46.67,1.01-57.27-6.24-4.51-15.06-4.68-21.49-.46-13.12,8.62-13.67,31.71-9.06,45.3,1.72,5.08,4.67,9.55,9.22,12.38,6.05,3.76,14.11,3.94,20.33.05Z"/>
  <path class="cls-3" d="M240.55,217.32v105.27s-28.21.03-28.21.03l-.35-19.57c-4.51,10.12-11.96,17.28-22.48,19.79-16.97,4.06-34.18-1.92-41.79-18.4-2.82-6.11-3.71-12.25-4.08-19.06l-.02-68.04h29.54s0,60.96,0,60.96c-.42,11.51,6.39,21.09,18.34,20.83,11.25-.25,19.37-8.56,19.78-19.91l.05-61.88,29.25-.02Z"/>
  <path class="cls-3" d="M468.51,42.97v105.51s-27.99.02-27.99.02c-.27-6.74.34-12.76-.5-19.79-5.71,13.75-17.47,20.94-31.65,21.11-21.65.25-34.67-13.98-36.54-35.1l-.02-71.71,29.28-.04v62.67c.39,10.36,6.2,18.68,16.86,19.24,11.74.62,20.93-7.87,21.27-19.74l.03-62.15h29.26Z"/>
  <path class="cls-3" d="M317.06,124c4.99-3.2,7.37-8.33,8.35-14.31l27.66-.06c-.24,17.23-11.03,32.26-27.69,37.85-11.18,3.75-23.29,3.94-34.83,1.13-14.14-3.45-25.26-13.1-31.17-26.25-6.82-15.19-6.93-36.08-.49-51.38s19.15-25.41,35.2-28.26c8.07-1.43,16.11-1.44,24.19.06,19.89,3.69,34.26,18.62,34.87,39.28l-27.74.02c-.83-5.89-3.49-10.83-8.15-14.37-10.17-6.33-23.24-2.75-28.79,7.87-5.77,11.04-5.75,27.88-.8,39.05s18.57,16.33,29.4,9.37Z"/>
  <path class="cls-3" d="M1143.08,125l4.76,22.05c-10.06,3.15-20.62,4.01-30.93,1.24-11.02-2.96-19.86-11.89-19.92-23.72l-.3-59.24-14.33-.09v-22.22s14.36-.09,14.36-.09l.07-25.14h29.22s.03,25.15.03,25.15l19.92.06-.04,22.26-19.9.05.06,52.49c0,3.01,1.81,5.73,3.94,7.18,4.19,1.65,7.63,1.47,13.08.01Z"/>
  <path class="cls-3" d="M956.26,125.14l4.72,21.93c-10.38,3.21-21.13,4.03-31.55,1.04-10.89-3.13-19.29-12.11-19.36-23.85l-.34-58.97-14.3-.04v-22.25s14.37-.07,14.37-.07l.03-25.13h29.22s.07,25.13.07,25.13l19.88.09-.03,22.23-19.89.05.08,51.79c0,5.15,3.14,8.59,8,9.01,2.9.1,5.13-.23,9.1-.97Z"/>
  <rect class="cls-3" x="1164.65" y="42.97" width="29.28" height="105.53"/>
  <path class="cls-3" d="M599.94,234.63l-28.38,16.54-45.18-26.34-.02-42.52c1.55.56,2.59,1,3.93,1.66l77.42,45.08c-.37,1.39-1.64,2.18-2.96,2.91l-4.81,2.66Z"/>
  <path class="cls-1" d="M462.55,249.81l-34.13-19.95c1.01-1.21,1.48-1.49,2.39-2.02l24.37-14.15,22.31-13.03,27.28-15.85c1.64-.95,3.12-1.69,5-2.62l.03,42.43c-.77.92-2.19,1.64-3.23,2.25l-18.82,10.99-17.17,10.02-3.35,1.89c-1.96,1.47-2.65,1.22-4.68.03Z"/>
  <path class="cls-2" d="M518.01,282.04l-8.8-5.13-27.76-16.23c3.2-2.11,5.67-3.6,8.56-5.27l7.36-4.23,20.51-12.03c2.09.93,4.01,1.93,5.92,3.05l31.41,18.34-31.86,18.69c-1.76,1.03-3.68,2.04-5.33,2.82Z"/>
  <path class="cls-3" d="M1194.15,9.31c1.49,3.56,1.41,7.85-.04,11.12-2.44,5.51-7.66,8.76-13.16,9.24-5.94.53-11.73-1.88-15.14-6.97-4.18-6.24-2.64-14.34,2.99-19.01,7.71-6.41,21.13-4.44,25.35,5.61Z"/>
</svg>