<?xml version="1.0" encoding="UTF-8"?>
<svg xmlns="http://www.w3.org/2000/svg" viewBox="0 0 616.81 157.08">
  <defs>
    <style>
      .cls-1 {
        fill: #fff;
      }
    </style>
  </defs>
  <g>
    <polygon class="cls-1" points="0 147.85 0 7.31 30.34 7.5 30.37 65.48 90.11 65.47 90.12 7.44 120.09 7.45 120.09 147.97 90.11 147.98 90.11 90.18 30.35 90.18 30.35 147.98 0 147.85"/>
    <path class="cls-1" d="M365.31,77.5c2.29,11.29,2.29,22.36.46,33.46-3.62,21.96-18.84,38.99-42.27,38.8-13.28-.11-23.63-6.72-29.8-19.34-1.26,6.35-.2,11.6-.67,17.55h-28.95s0-140.47,0-140.47l29.52-.02.09,52.96c2.62-3.59,4.1-6.5,6.53-9.27,5.85-6.66,13.95-9.75,22.77-9.95,22.3-.51,38,14.94,42.33,36.3ZM335.16,109.16c4.4-15.84,2-43.49-19.38-44.46-7.5-.34-14.02,3.14-17.9,9.66-6.57,11.04-6.49,30.89-.01,41.96,3.57,6.1,9.43,9.8,16.43,9.91,11.16.17,18.06-6.97,20.86-17.08Z"/>
    <path class="cls-1" d="M240.55,42.69v105.27s-28.21.03-28.21.03l-.35-19.57c-4.51,10.12-11.96,17.28-22.48,19.79-16.97,4.06-34.18-1.92-41.79-18.4-2.82-6.11-3.71-12.25-4.08-19.06l-.02-68.04h29.54s0,60.96,0,60.96c-.42,11.51,6.39,21.09,18.34,20.83,11.25-.25,19.37-8.56,19.78-19.91l.05-61.88,29.25-.02Z"/>
  </g>
  <g>
    <path class="cls-1" d="M526.95,157.08h-.6l.03-42.98,85.89-49.98,4.54-2.43v42.95s-77.23,44.94-77.23,44.94l-7.05,4.07c-1.96,1.13-3.86,2.26-5.58,3.43Z"/>
    <path class="cls-1" d="M509.69,157.08h-.28l-15.15-9.05-67.84-39.45c-2.24-1.3-4.2-2.28-6.14-3.81v-42.92s11.4,6.66,11.4,6.66l49.25,28.65,28.86,16.82-.11,43.1Z"/>
    <path class="cls-1" d="M599.94,52.43l-28.38,16.54-45.18-26.34-.02-42.52c1.55.56,2.59,1,3.93,1.66l77.42,45.08c-.37,1.39-1.64,2.18-2.96,2.91l-4.81,2.66Z"/>
    <path class="cls-1" d="M462.55,67.61l-34.13-19.95c1.01-1.21,1.48-1.49,2.39-2.02l24.37-14.15,22.31-13.03,27.28-15.85c1.64-.95,3.12-1.69,5-2.62l.03,42.43c-.77.92-2.19,1.64-3.23,2.25l-18.82,10.99-17.17,10.02-3.35,1.89c-1.96,1.47-2.65,1.22-4.68.03Z"/>
    <path class="cls-1" d="M518.01,99.85l-8.8-5.13-27.76-16.23c3.2-2.11,5.67-3.6,8.56-5.27l7.36-4.23,20.51-12.03c2.09.93,4.01,1.93,5.92,3.05l31.41,18.34-31.86,18.69c-1.76,1.03-3.68,2.04-5.33,2.82Z"/>
  </g>
</svg>