<?xml version="1.0" encoding="UTF-8"?> <svg xmlns="http://www.w3.org/2000/svg" xmlns:xlink="http://www.w3.org/1999/xlink" id="Layer_2" viewBox="0 0 683.1421 166.9037"><g id="Components"><g id="c2cdae00-0031-4e68-848d-d339a0de75f9_5"><g id="logoMark"><a><polygon id="logoMark_PathItem_" points="167.252 69.9745 167.252 105.6121 90.9506 149.6857 90.9506 114.048 167.252 69.9745" style="fill:#fff;"></polygon></a><a><path id="logoMark_PathItem_-2" d="M76.352,114.048v35.6376L0,105.6121v-35.6376l34.5012,19.9026c.0253.0251.0758.0504.1261.0757l41.7247,24.0953Z" style="fill:#fff;"></path></a><a><polygon id="logoMark_PathItem_-3" points="114.5153 83.5879 83.6513 101.4195 52.762 83.5879 83.6513 65.7564 114.5153 83.5879" style="fill:#fff;"></polygon></a><a><polygon id="logoMark_PathItem_-4" points="159.978 57.346 129.0887 75.1774 90.9506 53.1279 90.9506 17.465 159.978 57.346" style="fill:#fff;"></polygon></a><a><polygon id="logoMark_PathItem_-5" points="76.352 17.465 76.352 53.1279 38.1633 75.1521 7.274 57.346 76.352 17.465" style="fill:#fff;"></polygon></a></g><rect x="186.7397" y="102.9262" width="496.3408" height="63.9775" style="fill:#fff;"></rect><path d="M247.7683,152.3206v-34.8283h23.4681v6.0705h-16.1042v8.2991h14.8975v6.0714h-14.8975v8.3161h16.173v6.0714h-23.5369Z"></path><path d="M315.8127,117.4923v34.8283h-6.3599l-15.1529-21.921h-.2546v21.921h-7.3639v-34.8283h6.4626l15.0332,21.904h.3064v-21.904h7.329Z"></path><path d="M330.1349,123.5627v-6.0705h28.6042v6.0705h-10.6626v28.7579h-7.279v-28.7579h-10.6626Z"></path><path d="M373.0452,152.3206v-34.8283h23.4681v6.0705h-16.1042v8.2991h14.8975v6.0714h-14.8975v8.3161h16.173v6.0714h-23.5369Z"></path><path d="M411.9583,152.3206v-34.8283h13.7407c2.6306,0,4.878.4672,6.7431,1.4024,1.8651.9352,3.288,2.2563,4.2688,3.9624.9808,1.707,1.4712,3.7105,1.4712,6.0124,0,2.3126-.4993,4.2992-1.4971,5.9606-.9977,1.6605-2.4403,2.9334-4.3277,3.8177-1.8874.8843-4.1696,1.3265-6.8449,1.3265h-9.2004v-5.9186h8.0097c1.406,0,2.5734-.192,3.5033-.5779.9299-.385,1.6239-.9638,2.083-1.7347s.6887-1.7284.6887-2.8736c0-1.1567-.2296-2.1322-.6887-2.9254-.4591-.7932-1.1559-1.397-2.0911-1.8115-.9361-.4136-2.1125-.6208-3.5292-.6208h-4.9655v28.8088h-7.3639ZM430.7673,136.4709l8.6555,15.8496h-8.1285l-8.4688-15.8496h7.9418Z"></path><path d="M452.9634,152.3206v-34.8283h13.7407c2.6413,0,4.8923.5011,6.752,1.5051,1.8588,1.0031,3.2791,2.3921,4.2599,4.1661.9808,1.7749,1.4712,3.8177,1.4712,6.1312s-.4993,4.3528-1.4971,6.1214c-.9977,1.7695-2.4403,3.1469-4.3277,4.133-1.8874.9861-4.1696,1.4792-6.8449,1.4792h-8.7582v-5.9007h7.5675c1.4176,0,2.5877-.2465,3.5122-.7396.9236-.4931,1.615-1.1791,2.0741-2.058.4591-.8789.6887-1.8901.6887-3.0352,0-1.1567-.2296-2.1688-.6887-3.0361-.4591-.8673-1.1532-1.5417-2.083-2.0241-.9299-.4815-2.1089-.7226-3.5372-.7226h-4.9655v28.8088h-7.3639Z"></path><path d="M493.5603,152.3206v-34.8283h13.7407c2.6306,0,4.878.4672,6.7431,1.4024,1.8651.9352,3.288,2.2563,4.2688,3.9624.9808,1.707,1.4712,3.7105,1.4712,6.0124,0,2.3126-.4993,4.2992-1.4971,5.9606-.9977,1.6605-2.4403,2.9334-4.3277,3.8177-1.8874.8843-4.1696,1.3265-6.8449,1.3265h-9.2004v-5.9186h8.0097c1.406,0,2.5734-.192,3.5033-.5779.9299-.385,1.6239-.9638,2.083-1.7347.4591-.7709.6887-1.7284.6887-2.8736,0-1.1567-.2296-2.1322-.6887-2.9254-.4591-.7932-1.1559-1.397-2.0911-1.8115-.9361-.4136-2.1125-.6208-3.5292-.6208h-4.9655v28.8088h-7.3639ZM512.3692,136.4709l8.6555,15.8496h-8.1285l-8.4688-15.8496h7.9418Z"></path><path d="M541.9292,117.4923v34.8283h-7.3639v-34.8283h7.3639Z"></path><path d="M576.4717,127.5082c-.1358-1.3711-.72-2.4368-1.7516-3.1969-1.0317-.7593-2.4323-1.1389-4.2009-1.1389-1.2014,0-2.2161.167-3.0442.5011-.8271.335-1.4596.7968-1.8955,1.3863-.4368.5895-.6547,1.2586-.6547,2.0062-.0232.6244.1099,1.1684.3993,1.6328.2894.4654.6887.8647,1.1987,1.1987.51.335,1.0996.6244,1.7686.8673.669.2439,1.3836.4511,2.1429.6208l3.129.7485c1.5194.3403,2.9137.7941,4.1839,1.3604,1.2693.5672,2.3689,1.2648,3.2987,2.092.9299.828,1.6525,1.8026,2.1688,2.9254.5154,1.1219.7789,2.4091.7905,3.8597-.0116,2.1322-.5529,3.9767-1.6239,5.5354-1.0719,1.5596-2.6136,2.7673-4.6261,3.623-2.0125.8557-4.4358,1.2836-7.2701,1.2836-2.8119,0-5.2576-.4305-7.338-1.2925-2.0804-.8611-3.7016-2.1393-4.8637-3.8347-1.1621-1.6945-1.7713-3.7954-1.8285-6.3009h7.1263c.0786,1.1684.4162,2.1402,1.0111,2.9164.5958.7771,1.3952,1.3604,2.3983,1.7516s2.1393.5869,3.4095.5869c1.247,0,2.3322-.1813,3.2568-.544.9236-.3627,1.6409-.8673,2.1509-1.514.5109-.6458.7655-1.3881.7655-2.2277,0-.7816-.2296-1.439-.6887-1.9723s-1.1282-.9861-2.0062-1.3604c-.8789-.3743-1.9535-.7146-3.2228-1.021l-3.7927-.9522c-2.9361-.7137-5.2549-1.8302-6.9557-3.3496-1.7007-1.5194-2.5448-3.5658-2.5341-6.1392-.0107-2.1089.5529-3.9517,1.6927-5.5274,1.1389-1.5757,2.7065-2.8057,4.702-3.69,1.9955-.8843,4.2625-1.3265,6.8029-1.3265,2.5841,0,4.8431.4422,6.7761,1.3265,1.933.8843,3.4381,2.1143,4.5153,3.69,1.0772,1.5757,1.6328,3.4015,1.6668,5.4756h-7.0575Z"></path><path d="M598.5151,152.3206v-34.8283h23.4681v6.0705h-16.1042v8.2991h14.8975v6.0714h-14.8975v8.3161h16.173v6.0714h-23.5369Z"></path><path d="M186.7397,15.3632V1.1173h67.1191v14.2459h-25.02v67.4782h-17.0791V15.3632h-25.02Z" style="fill:#fff;"></path><path d="M261.6198,82.8414V21.5483h16.4807v10.6944h.6383c1.1175-3.804,2.9929-6.684,5.6266-8.6393,2.6337-1.9553,5.6664-2.933,9.0983-2.933.8512,0,1.769.0537,2.7533.1597.984.1066,1.8487.2531,2.5938.4389v15.0838c-.7982-.2394-1.9021-.452-3.3119-.6384-1.4105-.1858-2.7006-.2794-3.8708-.2794-2.5009,0-4.7286.5387-6.6841,1.6162-1.9551,1.0774-3.4984,2.5738-4.6287,4.4892-1.1314,1.9154-1.6962,4.1238-1.6962,6.6241v34.6769h-16.9993Z" style="fill:#fff;"></path><path d="M350.2251,56.744V21.5483h16.9993v61.2931h-16.3208v-11.1333h-.6387c-1.3834,3.5913-3.678,6.4781-6.8834,8.6592-3.2061,2.1817-7.1099,3.2723-11.7119,3.2723-4.0972,0-7.7017-.9309-10.8142-2.7934-3.1125-1.8618-5.5406-4.5092-7.2825-7.941-1.7426-3.4317-2.6275-7.5419-2.6538-12.3304V21.5483h16.9993v35.9937c.0263,3.6182.9975,6.4782,2.9131,8.5795,1.9153,2.1018,4.4824,3.1524,7.7013,3.1524,2.0484,0,3.9637-.472,5.7462-1.4166,1.7821-.9439,3.2255-2.3475,4.3299-4.2099,1.1036-1.8618,1.6424-4.1631,1.6161-6.9035Z" style="fill:#fff;"></path><path d="M412.0951,84.0386c-6.3048,0-11.7258-1.2832-16.2608-3.8509-4.5362-2.567-8.0276-6.2114-10.4751-10.9338-2.4479-4.7218-3.6711-10.3153-3.6711-16.7798,0-6.3048,1.2232-11.8379,3.6711-16.6002,2.4475-4.7617,5.8991-8.4728,10.3551-11.1334,4.4557-2.6598,9.6901-3.9904,15.7026-3.9904,4.0434,0,7.8144.6453,11.3128,1.9354,3.4977,1.2906,6.5575,3.226,9.178,5.8061,2.6198,2.5806,4.662,5.8198,6.1251,9.7167,1.4628,3.8976,2.1947,8.4535,2.1947,13.6673v4.6688h-51.756v-10.5347h35.7545c0-2.4472-.5326-4.6152-1.5963-6.5044-1.0644-1.8886-2.5338-3.3719-4.4092-4.4493-1.8758-1.0774-4.0504-1.6162-6.5246-1.6162-2.5806,0-4.8621.5923-6.8436,1.7757-1.9822,1.1841-3.5313,2.7671-4.6488,4.7486-1.1175,1.9821-1.6896,4.1837-1.7159,6.6042v10.0161c0,3.0327.5648,5.6533,1.6958,7.8611,1.1307,2.2085,2.7335,3.9107,4.8087,5.1078s4.5354,1.7957,7.3824,1.7957c1.8886,0,3.6173-.2656,5.1876-.7981,1.5692-.5319,2.9128-1.3299,4.0303-2.3943,1.1171-1.0637,1.9683-2.3674,2.5539-3.9106l15.722,1.0375c-.7978,3.7778-2.4277,7.0699-4.888,9.8763-2.461,2.807-5.6266,4.988-9.4974,6.5443-3.8708,1.5563-8.3338,2.3345-13.3879,2.3345Z" style="fill:#fff;"></path><path d="M522.849,1.1173v81.7241h-11.3329l-41.5406-59.9363h-.7579v59.9363h-12.3308V1.1173h11.4126l41.5804,60.0161h.7583V1.1173h12.2108Z" style="fill:#fff;"></path><path d="M551.0795,82.8414h-13.0887L567.4003,1.1173h14.246l29.4095,81.7241h-13.0887l-23.1047-66.8797h-.6383l-23.1446,66.8797ZM553.2743,50.8381h42.4583v10.3752h-42.4583v-10.3752Z" style="fill:#fff;"></path><path d="M670.1331,22.5859c-.4258-3.7772-2.1816-6.7101-5.2674-8.7989-3.0865-2.0881-6.9701-3.1325-11.6522-3.1325-3.3517,0-6.2517.5256-8.6988,1.5762-2.4479,1.0513-4.3434,2.4878-5.6866,4.3097-1.3435,1.8225-2.0151,3.8906-2.0151,6.2051,0,1.9423.4591,3.6182,1.3768,5.028.9178,1.4104,2.1278,2.5876,3.6312,3.5315,1.5027.9447,3.1187,1.7296,4.8485,2.3544,1.7287.6253,3.3916,1.1372,4.9879,1.5363l7.9808,2.075c2.607.6385,5.2805,1.5032,8.0207,2.5937,2.7398,1.0912,5.2805,2.5277,7.622,4.3097,2.3407,1.7826,4.2358,3.9904,5.6862,6.6241,1.4496,2.6337,2.175,5.7862,2.175,9.4573,0,4.6289-1.191,8.7391-3.5716,12.3305-2.3813,3.5913-5.8259,6.4245-10.3354,8.4996-4.5091,2.0751-9.9561,3.1125-16.3406,3.1125-6.1193,0-11.4126-.9714-15.8819-2.913-4.4696-1.9416-7.968-4.7019-10.4949-8.2802-2.528-3.5776-3.9246-7.8274-4.1901-12.7494h12.3703c.2396,2.9529,1.2034,5.407,2.893,7.3623,1.6892,1.9553,3.8573,3.4056,6.5045,4.3496,2.6469.9446,5.5531,1.4166,8.7193,1.4166,3.4845,0,6.5904-.5518,9.3174-1.656,2.7266-1.1036,4.8745-2.6468,6.4445-4.6289,1.5696-1.9816,2.3546-4.3029,2.3546-6.9634,0-2.4204-.6851-4.4026-2.055-5.9457-1.3706-1.5425-3.2193-2.8195-5.5468-3.8308-2.3283-1.0107-4.955-1.9016-7.8809-2.6736l-9.6569-2.6337c-6.5443-1.782-11.7258-4.4026-15.5428-7.8612-3.8177-3.458-5.7264-8.0338-5.7264-13.7271,0-4.7087,1.277-8.8189,3.8309-12.3305,2.5539-3.5116,6.0118-6.2449,10.3749-8.2003,4.3628-1.9553,9.2841-2.933,14.7647-2.933,5.5329,0,10.4214.9714,14.6649,2.9131,4.2428,1.9422,7.5879,4.609,10.0358,8.0007,2.4475,3.3919,3.7245,7.2826,3.8309,11.6721h-11.8915Z" style="fill:#fff;"></path></g></g></svg> 