<?xml version="1.0" encoding="UTF-8"?>
<svg id="Layer_2" data-name="Layer 2" xmlns="http://www.w3.org/2000/svg" viewBox="0 0 956.74 132.22">
  <defs>
    <style>
      .cls-1 {
        fill: #fff;
      }
    </style>
  </defs>
  <g id="logoMark">
    <polygon id="logoMark_PathItem_" data-name="logoMark PathItem " class="cls-1" points="167.25 52.51 167.25 88.15 90.95 132.22 90.95 96.58 167.25 52.51"/>
    <path id="logoMark_PathItem_-2" data-name="logoMark PathItem -2" class="cls-1" d="M76.35,96.58v35.64L0,88.15v-35.64l34.5,19.9s.08.05.13.08l41.72,24.1h0Z"/>
    <polygon id="logoMark_PathItem_-3" data-name="logoMark PathItem -3" class="cls-1" points="114.52 66.12 83.65 83.95 52.76 66.12 83.65 48.29 114.52 66.12"/>
    <polygon id="logoMark_PathItem_-4" data-name="logoMark PathItem -4" class="cls-1" points="159.98 39.88 129.09 57.71 90.95 35.66 90.95 0 159.98 39.88"/>
    <polygon id="logoMark_PathItem_-5" data-name="logoMark PathItem -5" class="cls-1" points="76.35 0 76.35 35.66 38.16 57.69 7.27 39.88 76.35 0"/>
  </g>
  <g>
    <path class="cls-1" d="M177.22,24.13V1.75h105.4v22.37h-39.29v105.96h-26.82V24.13h-39.29,0Z"/>
    <path class="cls-1" d="M294.8,130.09V33.84h25.88v16.79h1c1.75-5.97,4.7-10.5,8.84-13.57,4.14-3.07,8.9-4.61,14.29-4.61,1.34,0,2.78.08,4.32.25,1.55.17,2.9.4,4.07.69v23.69c-1.25-.38-2.99-.71-5.2-1-2.21-.29-4.24-.44-6.08-.44-3.93,0-7.43.85-10.5,2.54-3.07,1.69-5.49,4.04-7.27,7.05-1.78,3.01-2.66,6.48-2.66,10.4v54.45h-26.69Z"/>
    <path class="cls-1" d="M433.95,89.11v-55.27h26.69v96.25h-25.63v-17.48h-1c-2.17,5.64-5.78,10.17-10.81,13.6-5.03,3.43-11.17,5.14-18.39,5.14-6.43,0-12.09-1.46-16.98-4.39-4.89-2.92-8.7-7.08-11.44-12.47-2.74-5.39-4.13-11.84-4.17-19.36v-61.29h26.69v56.52c.04,5.68,1.57,10.17,4.57,13.47,3.01,3.3,7.04,4.95,12.09,4.95,3.22,0,6.22-.74,9.02-2.22,2.8-1.48,5.07-3.69,6.8-6.61,1.73-2.92,2.58-6.54,2.54-10.84h0Z"/>
    <path class="cls-1" d="M531.1,131.97c-9.9,0-18.41-2.02-25.54-6.05-7.12-4.03-12.61-9.75-16.45-17.17-3.84-7.41-5.76-16.2-5.76-26.35s1.92-18.59,5.76-26.07c3.84-7.48,9.26-13.31,16.26-17.48,7-4.18,15.22-6.27,24.66-6.27,6.35,0,12.27,1.01,17.77,3.04,5.49,2.03,10.3,5.07,14.41,9.12,4.11,4.05,7.32,9.14,9.62,15.26,2.3,6.12,3.45,13.27,3.45,21.46v7.33h-81.27v-16.54h56.15c0-3.84-.84-7.25-2.51-10.21-1.67-2.97-3.98-5.3-6.92-6.99-2.95-1.69-6.36-2.54-10.25-2.54s-7.64.93-10.75,2.79c-3.11,1.86-5.55,4.35-7.3,7.46-1.75,3.11-2.65,6.57-2.69,10.37v15.73c0,4.76.89,8.88,2.66,12.34,1.78,3.47,4.29,6.14,7.55,8.02s7.12,2.82,11.59,2.82c2.97,0,5.68-.42,8.15-1.25,2.46-.84,4.57-2.09,6.33-3.76,1.75-1.67,3.09-3.72,4.01-6.14l24.69,1.63c-1.25,5.93-3.81,11.1-7.68,15.51-3.86,4.41-8.84,7.83-14.91,10.28-6.08,2.44-13.09,3.67-21.02,3.67h0Z"/>
    <path class="cls-1" d="M705.03,1.75v128.34h-17.8l-65.23-94.12h-1.19v94.12h-19.36V1.75h17.92l65.3,94.25h1.19V1.75h19.18Z"/>
    <path class="cls-1" d="M749.36,130.09h-20.55L774.99,1.75h22.37l46.18,128.34h-20.55l-36.28-105.02h-1l-36.35,105.02ZM752.8,79.83h66.67v16.29h-66.67v-16.29Z"/>
    <path class="cls-1" d="M936.31,35.47c-.67-5.93-3.43-10.54-8.27-13.82-4.85-3.28-10.95-4.92-18.3-4.92-5.26,0-9.82.83-13.66,2.48-3.84,1.65-6.82,3.91-8.93,6.77-2.11,2.86-3.16,6.11-3.16,9.74,0,3.05.72,5.68,2.16,7.9,1.44,2.21,3.34,4.06,5.7,5.55,2.36,1.48,4.9,2.72,7.61,3.7,2.71.98,5.33,1.79,7.83,2.41l12.53,3.26c4.09,1,8.29,2.36,12.6,4.07,4.3,1.71,8.29,3.97,11.97,6.77,3.68,2.8,6.65,6.27,8.93,10.4,2.28,4.14,3.42,9.09,3.42,14.85,0,7.27-1.87,13.72-5.61,19.36-3.74,5.64-9.15,10.09-16.23,13.35-7.08,3.26-15.63,4.89-25.66,4.89s-17.92-1.53-24.94-4.57c-7.02-3.05-12.51-7.38-16.48-13-3.97-5.62-6.16-12.29-6.58-20.02h19.43c.38,4.64,1.89,8.49,4.54,11.56,2.65,3.07,6.06,5.35,10.21,6.83,4.16,1.48,8.72,2.22,13.69,2.22,5.47,0,10.35-.87,14.63-2.6,4.28-1.73,7.65-4.16,10.12-7.27,2.46-3.11,3.7-6.76,3.7-10.93,0-3.8-1.08-6.91-3.23-9.34-2.15-2.42-5.06-4.43-8.71-6.02-3.66-1.59-7.78-2.99-12.38-4.2l-15.16-4.14c-10.28-2.8-18.41-6.91-24.41-12.34-6-5.43-8.99-12.62-8.99-21.56,0-7.39,2.01-13.85,6.02-19.36,4.01-5.51,9.44-9.81,16.29-12.88,6.85-3.07,14.58-4.61,23.19-4.61s16.37,1.53,23.03,4.57c6.66,3.05,11.92,7.24,15.76,12.56,3.84,5.33,5.85,11.44,6.02,18.33h-18.67Z"/>
  </g>
</svg>