<?xml version="1.0" encoding="UTF-8"?> <svg xmlns="http://www.w3.org/2000/svg" xmlns:xlink="http://www.w3.org/1999/xlink" id="Layer_2" viewBox="0 0 352.55 74.97"><defs><style>.cls-1{fill:#31beec;}.cls-1,.cls-2,.cls-3,.cls-4{stroke-width:0px;}.cls-2{fill:#aeadae;}.cls-3{fill:#aeadae;}.cls-4{fill:#0095d5;}</style></defs><g id="full-rgb"><path id="type_CompoundPathItem_" class="cls-4" d="M127.61,7.94v5.68h-15.3v44.58h-6.26V13.63h-15.3v-5.68h36.86Z"></path><path id="type_CompoundPathItem_-2" class="cls-4" d="M147.35,29.65c-1.53-2.11-3.42-3.06-6.12-3.06-4.45,0-7.79,3.35-7.79,8.81v22.8h-5.83V21.79h5.83v3.57c1.53-2.55,4.01-4.15,8.45-4.15,4.95,0,8.09,1.68,10.42,4.95l-4.95,3.5Z"></path><path id="type_CompoundPathItem_-3" class="cls-4" d="M185.16,58.21h-5.83v-3.57c-1.82,2.77-4.37,4.15-9.76,4.15-7.79,0-13.26-4.08-13.26-14.28v-22.73h5.83v22.66c0,7.36,4.01,8.96,8.3,8.96,5.46,0,8.89-3.86,8.89-8.89v-22.73h5.83v36.42Z"></path><path id="type_CompoundPathItem_-4" class="cls-4" d="M219.68,52.67c-2.55,4.44-6.41,6.12-12.75,6.12-9.76,0-15.59-6.34-15.59-16.46v-4.81c0-10.34,4.88-16.32,14.42-16.32s14.42,5.9,14.42,16.32v3.79h-23.02v1.02c0,6.26,2.99,11.22,9.32,11.22,4.73,0,7.14-1.38,8.67-4.08l4.52,3.2ZM197.17,36.21h17.12c-.29-6.12-2.99-9.76-8.52-9.76s-8.23,3.72-8.6,9.76Z"></path><path id="type_CompoundPathItem_-5" class="cls-4" d="M265.65,7.94v50.26h-7.5l-20.47-34.17v34.17h-8.16V7.94h7.28l20.69,34.6V7.94h8.16Z"></path><path id="type_CompoundPathItem_-6" class="cls-4" d="M271.33,58.21l17.48-50.26h8.01l17.48,50.26h-8.96l-3.43-10.42h-18.14l-3.42,10.42h-9.03ZM286.11,40.51h13.4l-6.7-20.32-6.7,20.32Z"></path><path id="type_CompoundPathItem_-7" class="cls-4" d="M345.48,20.11c-2.48-3.42-5.17-5.46-10.85-5.46-5.17,0-8.23,2.33-8.23,6.56,0,4.81,3.79,6.7,10.78,8.23,10.13,2.19,15.37,5.97,15.37,15.01,0,7.5-5.03,14.42-17.12,14.42-8.6,0-14.64-2.62-18.8-8.23l6.63-4.59c2.99,3.57,5.97,5.46,11.73,5.46,6.92,0,9.11-3.06,9.11-6.7,0-4.01-2.26-6.48-11-8.38-9.69-2.04-15.15-6.7-15.15-15.23,0-7.58,4.95-13.91,16.76-13.91,8.01,0,13.62,2.7,17.19,8.23l-6.41,4.59Z"></path><path id="type_CompoundPathItem_-8" class="cls-1" d="M108.23,74.97c-2.82,0-4.72-1.7-4.72-5.67v-1.61c0-3.97,1.9-5.68,4.72-5.68s4.74,1.7,4.74,5.68v1.61c0,3.97-1.9,5.67-4.74,5.67ZM105.63,69.29c0,2.73.92,3.83,2.6,3.83s2.62-1.1,2.62-3.83v-1.61c0-2.73-.93-3.83-2.62-3.83s-2.6,1.1-2.6,3.83v1.61Z"></path><path id="type_CompoundPathItem_-9" class="cls-1" d="M119.2,70.19v4.61h-2.12v-12.63h4.3c2.91,0,4.65,1.39,4.65,3.99s-1.72,4.03-4.65,4.03h-2.18ZM121.16,68.36c1.94,0,2.75-.75,2.75-2.2s-.81-2.14-2.75-2.14h-1.96v4.34h1.96Z"></path><path id="type_CompoundPathItem_-10" class="cls-1" d="M137.43,62.17v1.85h-5.62v3.33h5.07v1.83h-5.07v3.79h5.62v1.83h-7.74v-12.63h7.74Z"></path><path id="type_CompoundPathItem_-11" class="cls-1" d="M150.36,62.17v12.63h-1.89l-5.14-8.59v8.59h-2.05v-12.63h1.83l5.2,8.7v-8.7h2.05Z"></path><path id="type_CompoundPathItem_-12" class="cls-2" d="M274.2,65.23c-.62-.86-1.3-1.37-2.73-1.37-1.3,0-2.07.59-2.07,1.65,0,1.21.95,1.68,2.71,2.07,2.54.55,3.86,1.5,3.86,3.77,0,1.89-1.26,3.62-4.3,3.62-2.16,0-3.68-.66-4.72-2.07l1.67-1.15c.75.9,1.5,1.37,2.95,1.37,1.74,0,2.29-.77,2.29-1.68,0-1.01-.57-1.63-2.76-2.11-2.43-.51-3.81-1.68-3.81-3.83,0-1.9,1.24-3.5,4.21-3.5,2.01,0,3.42.68,4.32,2.07l-1.61,1.15Z"></path><path id="type_CompoundPathItem_-13" class="cls-2" d="M287.89,62.17v1.85h-3.62v10.78h-2.12v-10.78h-3.64v-1.85h9.39Z"></path><path id="type_CompoundPathItem_-14" class="cls-2" d="M295.38,74.97c-2.82,0-4.72-1.7-4.72-5.67v-1.61c0-3.97,1.9-5.68,4.72-5.68s4.74,1.7,4.74,5.68v1.61c0,3.97-1.9,5.67-4.74,5.67ZM292.78,69.29c0,2.73.92,3.83,2.6,3.83s2.62-1.1,2.62-3.83v-1.61c0-2.73-.93-3.83-2.62-3.83s-2.6,1.1-2.6,3.83v1.61Z"></path><path id="type_CompoundPathItem_-15" class="cls-2" d="M311.24,74.8l-2.43-5.13h-2.45v5.13h-2.12v-12.63h4.3c2.91,0,4.65,1.26,4.65,3.77,0,1.74-.82,2.86-2.29,3.39l2.69,5.47h-2.34ZM308.38,67.85c1.79,0,2.67-.48,2.67-1.9s-.88-1.92-2.67-1.92h-2.03v3.83h2.03Z"></path><path id="type_CompoundPathItem_-16" class="cls-2" d="M315.96,74.8l4.39-12.63h2.01l4.39,12.63h-2.25l-.86-2.62h-4.56l-.86,2.62h-2.27ZM319.68,70.35h3.37l-1.68-5.11-1.68,5.11Z"></path><path id="type_CompoundPathItem_-17" class="cls-2" d="M338.7,68.32v.97c0,3.97-1.81,5.67-4.65,5.67s-4.72-1.7-4.72-5.67v-1.52c0-4.06,1.9-5.77,4.72-5.77,2.56,0,4.19,1.43,4.59,4.08h-2.05c-.31-1.46-1.12-2.23-2.54-2.23-1.68,0-2.6,1.1-2.6,3.83v1.61c0,2.73.92,3.83,2.6,3.83s2.42-.95,2.56-2.95h-2.51v-1.85h4.6Z"></path><path id="type_CompoundPathItem_-18" class="cls-2" d="M350.55,62.17v1.85h-5.62v3.33h5.07v1.83h-5.07v3.79h5.62v1.83h-7.74v-12.63h7.74Z"></path><g id="logoMark"><a><polygon id="logoMark_PathItem_" class="cls-1" points="74.21 23.3 74.21 39.11 40.36 58.67 40.36 42.85 74.21 23.3"></polygon></a><a><path id="logoMark_PathItem_-2" class="cls-4" d="M33.88,42.85v15.81L0,39.11v-15.81l15.31,8.83s.03.02.06.03l18.51,10.69Z"></path></a><a><polygon id="logoMark_PathItem_-3" class="cls-2" points="50.81 29.34 37.12 37.25 23.41 29.34 37.12 21.43 50.81 29.34"></polygon></a><a><polygon id="logoMark_PathItem_-4" class="cls-4" points="70.98 17.7 57.28 25.61 40.36 15.82 40.36 0 70.98 17.7"></polygon></a><a><polygon id="logoMark_PathItem_-5" class="cls-1" points="33.88 0 33.88 15.82 16.93 25.6 3.23 17.7 33.88 0"></polygon></a></g><path class="cls-3" d="M164.79,61.68v1.92h-5.46v3.46h4.92v1.9h-4.92v3.93h5.46v1.9h-7.52v-13.12h7.52Z"></path><path class="cls-3" d="M176.37,61.68v13.12h-1.83l-4.99-8.92v8.92h-1.99v-13.12h1.78l5.05,9.03v-9.03h1.99Z"></path><path class="cls-3" d="M187.77,61.68v1.92h-3.52v11.2h-2.06v-11.2h-3.54v-1.92h9.12Z"></path><path class="cls-3" d="M197.58,61.68v1.92h-5.46v3.46h4.92v1.9h-4.92v3.93h5.46v1.9h-7.52v-13.12h7.52Z"></path><path class="cls-3" d="M207.15,74.8l-2.36-5.32h-2.38v5.32h-2.06v-13.12h4.18c2.83,0,4.51,1.31,4.51,3.92,0,1.81-.8,2.97-2.22,3.52l2.61,5.68h-2.27ZM204.38,67.57c1.74,0,2.59-.49,2.59-1.98s-.85-2-2.59-2h-1.97v3.97h1.97Z"></path><path class="cls-3" d="M214.08,70.01v4.79h-2.06v-13.12h4.18c2.83,0,4.51,1.44,4.51,4.14s-1.67,4.18-4.51,4.18h-2.11ZM215.98,68.11c1.88,0,2.67-.78,2.67-2.28s-.78-2.22-2.67-2.22h-1.9v4.51h1.9Z"></path><path class="cls-3" d="M230.1,74.8l-2.36-5.32h-2.38v5.32h-2.06v-13.12h4.18c2.83,0,4.51,1.31,4.51,3.92,0,1.81-.8,2.97-2.22,3.52l2.61,5.68h-2.27ZM227.33,67.57c1.74,0,2.59-.49,2.59-1.98s-.85-2-2.59-2h-1.97v3.97h1.97Z"></path><path class="cls-3" d="M237.2,74.8h-2.06v-13.12h2.06v13.12Z"></path><path class="cls-3" d="M247.25,64.86c-.6-.89-1.26-1.43-2.65-1.43-1.26,0-2.01.61-2.01,1.71,0,1.25.92,1.75,2.63,2.15,2.47.57,3.75,1.56,3.75,3.92,0,1.96-1.23,3.76-4.18,3.76-2.1,0-3.57-.68-4.58-2.15l1.62-1.2c.73.93,1.46,1.43,2.86,1.43,1.69,0,2.22-.8,2.22-1.75,0-1.05-.55-1.69-2.68-2.19-2.36-.53-3.7-1.75-3.7-3.97,0-1.98,1.21-3.63,4.09-3.63,1.95,0,3.32.7,4.19,2.15l-1.56,1.2Z"></path><path class="cls-3" d="M259.39,61.68v1.92h-5.46v3.46h4.92v1.9h-4.92v3.93h5.46v1.9h-7.52v-13.12h7.52Z"></path></g></svg> 