<?xml version="1.0" encoding="UTF-8" standalone="no"?> <svg xmlns:inkscape="http://www.inkscape.org/namespaces/inkscape" xmlns:sodipodi="http://sodipodi.sourceforge.net/DTD/sodipodi-0.dtd" xmlns="http://www.w3.org/2000/svg" xmlns:svg="http://www.w3.org/2000/svg" data-name="Layer 1" version="1.1" viewBox="0 0 512 512" id="svg16" sodipodi:docname="VendOp_ico_bw.svg" xml:space="preserve" width="512" height="512" inkscape:version="1.4 (86a8ad7, 2024-10-11)"><defs id="defs1"><style id="style1">.cls-1, .cls-2 { fill: #fff; } .cls-3 { fill: #00597f; } .cls-3, .cls-4, .cls-2, .cls-5 { stroke-width: 0px; } .cls-6, .cls-4 { fill: #31beec; } .cls-7 { font-size: 12.5px; } .cls-7, .cls-8, .cls-9 { font-family: Inter-Regular, Inter; font-variation-settings: 'wght' 400, 'slnt' 0; } .cls-10 { font-family: Inter-Medium, Inter; font-size: 20.83px; font-variation-settings: 'wght' 500, 'slnt' 0; font-weight: 500; } .cls-5 { fill: #f8b947; } .cls-8 { font-size: 10px; } .cls-9 { font-size: 12px; }</style></defs><g id="g17" transform="matrix(19.333887,0,0,19.333887,-4015.3648,-231.51342)"><rect style="fill:#1a1a1a;fill-opacity:1;stroke:none;stroke-width:0.0145298;stroke-linecap:square;paint-order:stroke markers fill" id="rect17" width="26.482" height="26.482" x="207.68533" y="11.974489"></rect><path class="cls-2" d="m 225.12556,16.176003 h 3.84873 c -0.8813,2.655064 -1.74029,5.25435 -2.59929,7.853636 -1.11557,3.357876 -2.2423,6.715752 -3.31325,10.095939 -0.17849,0.557787 -0.42392,0.725123 -0.97055,0.702811 -0.92592,-0.03347 -1.86301,0.03347 -2.77778,-0.03347 -0.27889,-0.02231 -0.69165,-0.290049 -0.76974,-0.535475 -1.88532,-5.890227 -3.73717,-11.802766 -5.58902,-17.704149 -0.0335,-0.111558 -0.0335,-0.234271 -0.0446,-0.390451 h 3.75949 c 1.32753,4.462293 2.66622,8.946898 4.01606,13.431503 0.0669,0 0.14502,0.01116 0.21196,0.02231 1.40562,-4.462294 2.81124,-8.924587 4.22802,-13.442659 z" id="path2"></path></g><rect style="fill:#1a1a1a;fill-opacity:1;stroke:none;stroke-width:0;stroke-linecap:square;paint-order:stroke markers fill" id="rect16" width="22.358896" height="0" x="146.71204" y="-35.541969" transform="scale(-1,1)"></rect></svg> 