<?xml version="1.0" standalone="no"?>
<!DOCTYPE svg PUBLIC "-//W3C//DTD SVG 20010904//EN"
 "http://www.w3.org/TR/2001/REC-SVG-20010904/DTD/svg10.dtd">
<svg version="1.0" xmlns="http://www.w3.org/2000/svg"
 width="1184.000000pt" height="1184.000000pt" viewBox="0 0 1184.000000 1184.000000"
 preserveAspectRatio="xMidYMid meet">
<metadata>
Created by potrace 1.11, written by Peter Selinger 2001-2013
</metadata>
<g transform="translate(0.000000,1184.000000) scale(0.100000,-0.100000)"
fill="#000000" stroke="none">
<path d="M6439 10572 c-4 -189 -2 -582 3 -582 4 0 5 -7 2 -15 -9 -23 -10 -465
-2 -465 4 0 5 -7 2 -15 -9 -23 -10 -465 -2 -465 4 0 5 -7 2 -15 -10 -24 -10
-465 -1 -465 5 0 5 -5 1 -11 -3 -6 -7 -113 -7 -237 l0 -226 29 -16 c24 -13
116 -66 174 -100 8 -5 38 -22 65 -38 28 -16 66 -38 85 -49 19 -11 89 -51 155
-89 66 -37 122 -71 125 -74 3 -3 16 -11 30 -18 25 -12 72 -39 100 -57 8 -5 17
-10 20 -10 3 0 16 -8 30 -16 49 -32 130 -79 134 -79 2 0 34 -18 70 -40 36 -22
70 -40 75 -40 5 0 11 -3 13 -8 2 -4 97 -61 212 -127 114 -66 229 -132 255
-148 25 -15 55 -32 66 -38 11 -5 29 -15 40 -22 11 -7 48 -28 83 -47 34 -19 62
-38 62 -42 0 -5 6 -8 14 -8 8 0 51 -23 95 -50 44 -27 83 -50 85 -50 3 0 38
-20 78 -44 40 -24 191 -111 336 -195 211 -122 267 -150 287 -145 14 3 28 10
31 15 3 5 20 16 37 25 34 16 62 32 142 79 60 36 69 41 216 124 63 36 116 67
119 71 3 3 23 14 45 25 22 11 42 23 45 26 10 11 145 83 153 81 4 -1 7 2 7 7 0
5 26 22 58 37 31 16 66 37 76 47 11 9 24 17 29 17 5 0 22 9 38 21 16 11 29 17
29 13 0 -4 8 0 18 8 9 9 51 35 92 58 41 24 117 67 169 96 51 30 97 54 102 54
5 0 9 4 9 9 0 5 12 14 28 20 15 6 36 16 47 23 11 7 31 20 45 29 14 9 45 27 70
41 25 14 61 34 81 46 20 11 47 26 60 34 13 7 26 15 29 18 3 3 19 12 35 20 17
8 54 29 83 47 29 18 56 33 61 33 5 0 11 3 13 8 2 4 29 21 60 37 32 17 58 33
58 37 0 5 3 7 8 6 4 -2 21 6 39 17 25 14 30 22 21 32 -6 7 -14 13 -19 13 -5 0
-28 11 -50 26 -22 14 -55 33 -72 43 -35 20 -133 77 -157 91 -8 5 -71 41 -140
80 -69 39 -132 76 -140 81 -8 5 -26 15 -40 21 -14 7 -27 15 -30 19 -4 5 -47
29 -145 83 -11 6 -22 14 -25 17 -3 3 -20 12 -37 20 -18 8 -33 17 -33 21 0 5
-4 8 -10 8 -5 0 -33 14 -62 31 -71 42 -136 79 -243 139 -33 19 -62 36 -65 39
-3 4 -21 14 -40 24 -63 33 -95 52 -100 58 -4 4 -91 55 -172 99 -22 12 -232
133 -413 238 -16 9 -32 19 -35 22 -3 3 -25 15 -50 28 -25 13 -70 39 -100 57
-30 19 -62 38 -70 42 -8 4 -46 26 -85 48 -38 23 -90 53 -115 67 -25 14 -65 37
-90 52 -25 15 -53 29 -62 33 -10 3 -18 9 -18 14 0 5 -4 9 -9 9 -12 0 -224 121
-232 133 -3 4 -12 9 -20 11 -13 2 -24 8 -111 63 -21 12 -40 23 -42 23 -10 0
-131 74 -134 82 -2 4 -10 8 -17 8 -8 0 -34 14 -58 30 -25 17 -49 30 -54 30 -5
0 -19 9 -31 20 -12 12 -22 18 -22 14 0 -3 -11 1 -24 10 -14 8 -42 25 -63 37
-21 12 -51 30 -68 40 -16 11 -36 22 -44 26 -8 3 -64 36 -125 71 -61 36 -136
78 -166 95 -30 17 -57 33 -60 36 -4 5 -27 18 -111 64 -13 7 -42 24 -64 38 -22
14 -55 32 -72 40 -18 8 -33 17 -33 21 0 5 -5 8 -10 8 -6 0 -36 16 -66 35 -30
19 -56 35 -59 35 -2 0 -39 20 -81 45 -41 25 -80 45 -85 45 -5 0 -9 3 -9 8 0 4
-15 13 -32 21 -18 8 -35 18 -38 21 -3 4 -32 22 -65 39 -33 18 -67 36 -75 41
-8 5 -50 30 -92 54 l-78 45 -1 -27z"/>
<path d="M5170 10465 c-118 -68 -221 -129 -227 -135 -7 -6 -13 -8 -13 -5 0 3
-20 -8 -44 -25 -25 -16 -51 -30 -59 -30 -9 0 -17 -3 -19 -7 -3 -8 -106 -73
-115 -73 -3 0 -18 -9 -34 -21 -16 -11 -29 -17 -29 -12 0 4 -5 0 -11 -9 -5 -10
-14 -18 -19 -18 -5 0 -50 -24 -100 -52 -50 -29 -105 -61 -123 -71 -18 -11 -47
-28 -64 -39 -18 -11 -33 -16 -33 -11 0 4 -5 0 -11 -9 -5 -10 -14 -18 -19 -18
-4 0 -43 -20 -84 -45 -42 -25 -81 -45 -86 -45 -6 0 -10 -4 -10 -10 0 -5 -4
-10 -9 -10 -7 0 -98 -51 -229 -129 -29 -17 -56 -31 -61 -31 -4 0 -18 -9 -31
-20 -13 -11 -29 -20 -37 -20 -7 0 -13 -4 -13 -10 0 -5 -4 -10 -9 -10 -6 0 -58
-28 -118 -63 -59 -35 -115 -66 -123 -70 -8 -4 -33 -19 -55 -33 -22 -14 -52
-30 -67 -37 -16 -6 -28 -14 -28 -18 0 -4 -11 -10 -25 -13 -14 -4 -25 -11 -25
-16 0 -6 -5 -10 -11 -10 -6 0 -24 -9 -40 -21 -16 -11 -29 -18 -29 -14 0 3 -10
-3 -22 -14 -11 -11 -25 -18 -29 -15 -4 2 -11 -1 -14 -6 -4 -6 -17 -15 -28 -21
-12 -5 -29 -13 -37 -19 -54 -35 -152 -90 -160 -90 -6 0 -10 -3 -10 -7 0 -5
-10 -13 -23 -18 -32 -16 -111 -59 -117 -65 -3 -3 -16 -11 -30 -18 -14 -7 -43
-23 -65 -36 -95 -55 -438 -254 -525 -304 -140 -80 -140 -80 -335 -193 -99 -58
-187 -108 -195 -112 -8 -4 -28 -16 -45 -27 -16 -11 -40 -24 -53 -30 -12 -5
-47 -26 -77 -45 -31 -19 -57 -35 -59 -35 -3 0 -54 -29 -115 -65 -60 -36 -114
-65 -120 -65 -6 0 -11 -4 -11 -10 0 -5 -7 -10 -15 -10 -8 0 -15 -5 -15 -12 0
-6 -3 -9 -6 -5 -4 3 -26 -7 -50 -23 -23 -17 -45 -30 -48 -30 -3 0 -29 -14 -58
-31 -61 -36 -69 -41 -238 -139 -69 -39 -129 -75 -133 -80 -5 -4 15 -21 45 -37
29 -16 70 -39 91 -51 20 -12 53 -31 72 -42 19 -11 52 -30 73 -42 20 -12 75
-43 122 -70 47 -27 92 -53 100 -58 8 -5 56 -32 105 -60 50 -28 97 -55 105 -60
8 -5 38 -22 65 -38 28 -16 153 -88 278 -160 126 -73 233 -132 238 -132 5 0 9
-3 9 -7 0 -5 10 -13 23 -19 35 -17 92 -49 97 -54 3 -3 14 -10 25 -16 47 -26
113 -63 160 -91 28 -16 57 -32 65 -36 8 -4 29 -16 45 -27 17 -10 50 -30 75
-43 66 -35 94 -51 100 -58 3 -3 37 -23 75 -44 39 -21 86 -48 105 -60 19 -12
50 -28 68 -36 17 -8 32 -17 32 -21 0 -4 17 4 38 18 33 23 163 98 230 133 15 8
29 17 32 20 3 3 34 21 70 40 36 19 67 37 70 40 3 4 23 15 45 26 22 11 42 23
45 26 3 3 43 27 90 54 47 26 103 58 125 71 22 13 47 27 55 31 8 3 17 9 20 12
3 3 21 14 40 24 59 31 95 52 100 57 9 9 85 51 103 57 9 3 17 9 17 14 0 5 4 9
10 9 7 0 123 64 200 111 13 8 50 29 160 92 19 11 53 30 75 43 22 13 51 29 65
36 14 7 27 15 30 18 9 9 84 51 113 63 15 6 27 15 27 19 0 4 4 8 10 8 8 0 102
53 160 90 8 5 38 22 65 36 28 15 61 34 75 44 14 9 50 30 80 47 30 17 106 60
169 97 62 36 115 66 116 66 3 0 127 73 155 90 8 6 24 15 35 20 11 6 34 18 50
28 l30 19 0 1256 c0 840 -3 1257 -10 1257 -6 0 -107 -56 -225 -125z"/>
<path d="M5770 7096 c-80 -46 -149 -88 -155 -92 -5 -5 -26 -17 -45 -26 -19
-10 -42 -22 -50 -28 -22 -14 -163 -95 -180 -103 -8 -4 -28 -15 -45 -26 -16
-10 -138 -80 -270 -156 -132 -76 -247 -144 -256 -151 -9 -8 -18 -12 -21 -9 -3
3 -11 -1 -18 -10 -7 -8 -17 -15 -22 -15 -6 0 -22 -8 -36 -19 -15 -10 -51 -31
-80 -47 -29 -16 -61 -33 -70 -39 -10 -5 -65 -38 -124 -72 -58 -35 -111 -63
-117 -63 -6 0 -11 -4 -11 -8 0 -4 -19 -18 -42 -30 -24 -12 -70 -38 -103 -57
-33 -19 -78 -44 -100 -56 -22 -12 -42 -25 -45 -29 -3 -4 -9 -9 -15 -11 -5 -2
-50 -26 -98 -54 -49 -27 -97 -54 -108 -60 -10 -5 -19 -12 -19 -15 0 -3 30 -23
68 -43 100 -56 154 -87 183 -108 14 -10 29 -16 33 -12 3 3 6 1 6 -5 0 -7 4
-12 9 -12 9 0 330 -183 349 -200 6 -6 12 -8 12 -6 0 3 16 -5 35 -19 20 -13 49
-30 65 -37 17 -7 30 -16 30 -20 0 -5 4 -8 9 -8 8 0 92 -47 361 -203 19 -11 55
-31 80 -45 25 -13 52 -30 60 -36 8 -7 26 -18 40 -24 14 -7 52 -28 85 -47 33
-20 68 -38 78 -42 9 -3 17 -9 17 -14 0 -5 4 -9 10 -9 5 0 39 -18 75 -40 36
-22 69 -40 74 -40 4 0 19 -8 32 -18 13 -10 44 -30 69 -43 25 -13 47 -27 48
-31 2 -5 12 -8 23 -8 10 0 19 -4 19 -9 0 -5 17 -17 38 -26 20 -10 39 -21 42
-24 3 -3 21 -14 40 -25 19 -10 51 -28 70 -39 19 -11 54 -31 78 -44 l43 -24
102 58 c56 32 108 59 115 61 6 2 12 7 12 12 0 5 10 12 23 16 12 4 46 22 75 40
28 19 52 31 52 28 0 -3 7 2 16 10 8 9 22 16 30 16 8 0 14 3 14 8 0 4 9 12 20
17 10 6 41 21 67 34 26 14 50 27 53 31 4 5 143 86 275 160 22 12 52 31 66 41
14 10 29 16 33 12 3 -3 6 -1 6 5 0 7 4 12 9 12 8 0 182 98 231 130 8 6 26 16
40 22 14 7 27 15 30 18 6 7 209 123 231 132 10 4 20 11 24 17 3 6 11 9 16 6 5
-4 9 -2 9 4 0 5 9 13 21 16 12 4 49 24 83 44 158 96 234 141 240 141 4 0 23
11 44 24 36 24 68 42 185 108 31 18 57 35 57 38 0 6 -77 51 -86 49 -4 0 -10 3
-13 8 -5 7 -21 17 -76 47 -11 6 -22 13 -25 16 -3 3 -16 11 -30 18 -14 7 -47
26 -75 42 -27 16 -57 33 -65 37 -8 4 -46 26 -85 49 -126 76 -160 95 -177 101
-10 3 -18 9 -18 14 0 5 -5 9 -11 9 -6 0 -48 23 -95 50 -47 28 -89 50 -94 50
-6 0 -10 5 -10 10 0 6 -6 10 -14 10 -8 0 -16 3 -18 8 -1 4 -33 23 -70 42 -38
19 -68 38 -68 43 0 4 -5 7 -11 7 -6 0 -39 17 -73 37 -33 21 -64 37 -68 35 -5
-1 -8 3 -8 8 0 6 -4 10 -9 10 -8 0 -185 100 -206 117 -5 5 -21 14 -35 20 -14
7 -47 25 -75 41 -27 16 -122 71 -210 122 -178 103 -210 122 -275 158 -25 13
-52 30 -60 36 -17 13 -116 66 -121 65 -2 0 -69 -38 -149 -83z"/>
<path d="M0 5621 l0 -1260 48 -28 c26 -15 49 -31 50 -35 2 -4 12 -8 23 -8 10
0 19 -4 19 -10 0 -5 4 -10 9 -10 5 0 55 -27 111 -60 56 -33 103 -60 105 -60 1
0 44 -25 94 -55 51 -30 94 -55 97 -55 3 0 30 -16 60 -35 30 -19 56 -35 58 -35
2 0 65 -36 141 -80 76 -44 140 -80 143 -80 3 0 13 -6 21 -14 9 -7 48 -31 86
-51 39 -21 81 -45 95 -54 14 -9 39 -23 55 -31 17 -8 32 -18 35 -21 10 -11 125
-74 133 -71 4 1 7 -3 7 -8 0 -6 7 -10 15 -10 8 0 15 -4 15 -8 0 -5 16 -14 35
-22 19 -8 35 -17 35 -21 0 -4 17 -14 38 -23 20 -9 64 -33 97 -53 69 -40 57
-34 315 -183 107 -63 222 -129 255 -147 66 -37 87 -50 126 -75 14 -10 29 -15
33 -11 3 3 6 2 6 -3 0 -6 22 -21 50 -35 27 -13 50 -27 50 -31 0 -5 6 -8 14 -8
8 0 21 -6 28 -13 7 -7 24 -18 38 -24 14 -7 48 -26 75 -42 28 -16 73 -42 100
-57 28 -14 52 -29 55 -33 5 -6 50 -31 125 -70 16 -9 32 -18 35 -21 7 -7 43
-29 60 -37 8 -4 42 -23 75 -43 33 -19 81 -47 108 -60 26 -14 47 -28 47 -32 0
-5 5 -8 11 -8 7 0 96 -49 199 -109 103 -60 204 -119 226 -131 48 -26 77 -43
84 -50 3 -3 21 -13 40 -23 77 -39 95 -50 98 -59 2 -4 8 -8 14 -8 9 0 126 -68
138 -80 3 -3 10 -6 15 -7 6 -1 55 -28 110 -61 106 -63 120 -71 297 -171 62
-35 121 -70 131 -79 9 -8 17 -11 17 -7 0 4 8 1 17 -7 10 -9 38 -27 63 -40 66
-37 108 -61 170 -98 30 -18 71 -42 90 -52 19 -10 53 -30 75 -44 22 -14 48 -27
58 -31 9 -3 17 -10 17 -16 0 -6 3 -8 6 -4 3 3 30 -10 59 -29 30 -19 59 -34 65
-34 5 0 10 -5 10 -11 0 -5 4 -8 9 -4 5 3 12 1 15 -4 9 -15 135 -83 144 -77 4
2 7 567 7 1255 0 1238 0 1250 -20 1265 -11 9 -25 16 -32 16 -6 0 -13 4 -15 8
-1 5 -28 22 -58 39 -30 16 -110 62 -178 101 -68 40 -127 72 -132 72 -6 0 -10
4 -10 8 0 5 -16 14 -35 22 -19 8 -35 17 -35 20 0 3 -16 12 -35 20 -19 8 -35
17 -35 21 0 4 -16 13 -35 20 -19 7 -35 17 -35 21 0 4 -4 8 -10 8 -5 0 -49 24
-97 53 -48 29 -95 56 -103 60 -8 4 -33 18 -55 32 -22 13 -57 32 -77 42 -21 10
-38 21 -38 25 0 5 -5 8 -10 8 -6 0 -34 15 -63 33 -29 18 -78 46 -109 62 -32
17 -58 33 -58 38 0 4 -4 7 -9 7 -13 0 -295 162 -299 172 -2 4 -12 8 -23 8 -10
0 -19 3 -19 8 0 4 -17 16 -37 27 -21 11 -70 39 -110 62 -39 24 -74 43 -77 43
-9 0 -141 84 -148 95 -4 5 -8 6 -8 1 0 -4 -11 -1 -24 8 -14 8 -40 24 -58 34
-88 51 -305 176 -323 187 -11 7 -24 12 -29 13 -5 0 -12 4 -15 9 -3 5 -26 20
-51 34 -25 13 -48 29 -52 34 -4 6 -8 6 -8 1 0 -5 -8 -2 -17 6 -10 8 -45 30
-78 47 -32 18 -71 41 -86 52 -15 10 -29 19 -32 19 -9 0 -152 84 -158 93 -3 5
-9 8 -13 7 -5 -1 -80 40 -146 81 -8 5 -33 18 -55 30 -22 12 -43 27 -47 33 -4
6 -8 7 -8 3 0 -5 -12 1 -26 12 -15 12 -33 21 -40 21 -8 0 -14 3 -14 8 0 4 -15
13 -32 21 -18 8 -35 17 -38 20 -5 6 -14 11 -99 59 -25 14 -79 45 -119 69 -41
24 -78 43 -83 43 -5 0 -9 5 -9 10 0 6 -4 10 -10 10 -8 0 -138 72 -180 100 -8
6 -22 13 -30 17 -8 4 -43 24 -78 45 -34 21 -64 38 -66 38 -4 0 -273 155 -296
171 -8 5 -27 15 -42 22 -16 6 -28 15 -28 19 0 4 -4 8 -10 8 -5 0 -39 18 -75
40 -36 22 -67 40 -69 40 -2 0 -50 27 -105 60 -56 33 -104 60 -108 60 -3 0 -14
6 -22 14 -9 8 -47 31 -86 52 -38 20 -88 49 -110 63 -22 14 -42 26 -45 26 -3 0
-16 8 -30 16 -31 20 -331 193 -342 197 -4 2 -8 -564 -8 -1257z"/>
<path d="M11815 6871 c-14 -14 -206 -121 -216 -121 -5 0 -9 -4 -9 -9 0 -5 -13
-14 -30 -20 -16 -5 -30 -15 -30 -20 0 -6 -6 -11 -14 -11 -7 0 -47 -20 -88 -45
-42 -25 -80 -45 -87 -45 -6 0 -11 -4 -11 -10 0 -5 -7 -10 -15 -10 -8 0 -15 -4
-15 -8 0 -5 -18 -16 -39 -25 -22 -10 -55 -29 -76 -42 -20 -14 -42 -25 -49 -25
-8 0 -16 -7 -20 -15 -3 -8 -9 -14 -13 -13 -4 1 -51 -23 -103 -54 -115 -68
-158 -92 -230 -131 -30 -16 -61 -34 -69 -40 -14 -12 -47 -32 -71 -44 -8 -4
-37 -20 -65 -36 -62 -37 -107 -62 -165 -95 -25 -13 -49 -28 -55 -32 -5 -5 -37
-23 -70 -41 -33 -18 -62 -35 -65 -38 -3 -3 -35 -22 -72 -41 -37 -19 -68 -38
-68 -42 0 -5 -5 -8 -10 -8 -6 0 -88 -45 -181 -100 -94 -54 -179 -102 -190
-105 -10 -4 -19 -10 -19 -14 0 -5 -15 -14 -32 -22 -38 -15 -110 -59 -120 -74
-4 -5 -8 -6 -8 -2 0 4 -24 -8 -54 -27 -30 -19 -57 -32 -60 -29 -3 4 -6 2 -6
-4 0 -5 -22 -20 -50 -33 -27 -13 -50 -27 -50 -31 0 -4 -12 -12 -27 -18 -16 -6
-46 -22 -68 -36 -22 -14 -46 -28 -54 -32 -14 -6 -232 -132 -366 -211 -33 -20
-78 -45 -100 -56 -22 -11 -45 -25 -51 -31 -6 -6 -30 -19 -53 -29 -22 -11 -41
-23 -41 -28 0 -4 -5 -8 -11 -8 -8 0 -117 -61 -244 -137 -11 -7 -27 -16 -35
-20 -8 -4 -48 -26 -88 -50 -40 -24 -77 -43 -82 -43 -6 0 -10 -3 -10 -7 0 -5
-10 -13 -23 -19 -12 -5 -98 -54 -192 -108 -202 -117 -226 -131 -285 -164 -25
-14 -56 -32 -70 -41 -46 -30 -65 -41 -100 -59 -36 -20 -272 -155 -331 -191
-19 -12 -41 -24 -49 -28 -15 -7 -132 -75 -160 -93 -8 -6 -24 -14 -35 -20 -11
-5 -41 -22 -67 -37 -25 -15 -77 -46 -115 -67 -37 -22 -70 -42 -73 -45 -3 -3
-10 -7 -17 -8 -6 -1 -28 -13 -47 -27 -20 -13 -42 -26 -47 -28 -13 -4 -19 -338
-7 -338 4 0 5 -7 2 -15 -9 -23 -10 -465 -2 -465 4 0 5 -7 2 -15 -9 -22 -10
-1425 -2 -1425 4 0 5 -7 2 -15 -11 -28 -10 -245 1 -245 12 1 52 23 426 240
357 207 357 208 434 250 33 18 71 41 85 50 14 9 50 31 80 47 109 60 155 87
160 92 3 3 21 14 40 24 62 33 95 52 100 58 3 3 24 15 47 26 56 29 87 47 93 53
5 6 209 123 225 129 5 2 12 7 15 11 3 3 30 19 60 34 30 16 57 32 60 35 3 4 20
13 38 20 17 8 32 17 32 22 0 5 5 9 10 9 6 0 58 28 117 62 58 35 108 61 111 60
3 -2 8 0 11 6 3 5 38 27 76 49 39 22 90 53 115 67 25 15 57 32 73 39 15 6 27
15 27 19 0 4 5 8 10 8 6 0 40 18 76 40 36 22 70 40 75 40 5 0 9 5 9 10 0 6 9
10 20 10 11 0 20 3 20 8 0 4 26 21 58 37 31 17 59 32 62 35 11 11 46 31 73 41
15 6 27 14 27 19 0 4 8 10 18 13 9 3 43 21 74 39 130 76 235 136 268 154 19
10 38 24 42 29 5 7 8 7 8 0 0 -5 7 -1 15 9 8 11 15 17 15 13 0 -4 41 18 90 48
50 30 93 55 96 55 2 0 23 11 45 26 22 14 56 34 75 45 70 39 110 62 139 80 17
10 53 30 80 44 28 15 57 33 66 41 8 8 18 14 22 14 4 0 44 23 91 50 47 28 89
50 95 50 6 0 11 5 11 10 0 6 6 10 14 10 7 0 24 8 37 18 13 11 49 32 79 49 30
16 74 42 97 56 24 15 45 27 47 27 2 0 49 26 103 58 54 32 105 61 113 65 8 4
31 17 51 30 20 12 88 51 150 86 63 36 117 69 120 74 3 5 8 7 10 6 4 -3 19 6
87 48 15 10 29 18 32 18 3 0 50 27 105 60 55 33 102 60 105 60 3 0 33 17 68
38 l62 38 0 1260 c0 692 -4 1259 -8 1259 -4 0 -12 -4 -17 -9z"/>
</g>
</svg>
