<svg xmlns="http://www.w3.org/2000/svg" viewBox="0 0 352.5495 76.9685">
  <title>truenas_open_storage-logo-full-color-rgb</title>
  <g id="full-rgb">
    <g id="type">
      <path id="type_CompoundPathItem_" data-name="type &lt;CompoundPathItem&gt;" d="M127.6108,7.9448V13.627H112.3131V58.2089h-6.2644V13.627H90.751V7.9448Z" style="fill: #0095d5"/>
      <path id="type_CompoundPathItem_2" data-name="type &lt;CompoundPathItem&gt;" d="M147.35,29.6535a6.9207,6.9207,0,0,0-6.1178-3.06c-4.4455,0-7.7944,3.3511-7.7944,8.8144v22.801h-5.8288V21.7858h5.8288v3.57c1.5278-2.55,4.0056-4.1533,8.4489-4.1533,4.9533,0,8.0855,1.6755,10.4166,4.9544Z" style="fill: #0095d5"/>
      <path id="type_CompoundPathItem_3" data-name="type &lt;CompoundPathItem&gt;" d="M185.1571,58.2089h-5.8288V54.64c-1.8211,2.7678-4.3689,4.1522-9.76,4.1522-7.7944,0-13.2577-4.08-13.2577-14.2788V21.7858h5.8266V44.4412c0,7.3577,4.0056,8.96,8.3044,8.96a8.4879,8.4879,0,0,0,8.8867-8.8877V21.7858h5.8288Z" style="fill: #0095d5"/>
      <path id="type_CompoundPathItem_4" data-name="type &lt;CompoundPathItem&gt;" d="M219.6836,52.6723c-2.55,4.4444-6.4111,6.12-12.7477,6.12-9.7622,0-15.591-6.3377-15.591-16.4632V37.52c0-10.3432,4.8811-16.3176,14.4243-16.3176,9.6155,0,14.4244,5.901,14.4244,16.3176V41.309h-23.02v1.02c0,6.2644,2.9878,11.2177,9.3244,11.2177,4.7344,0,7.14-1.3833,8.6677-4.0789Zm-22.51-16.4633h17.1188c-.2911-6.1188-2.9856-9.761-8.5233-9.761C200.1615,26.448,197.5371,30.1635,197.1737,36.209Z" style="fill: #0095d5"/>
      <path id="type_CompoundPathItem_5" data-name="type &lt;CompoundPathItem&gt;" d="M265.6488,7.9448V58.2089h-7.5032l-20.47-34.1653V58.2089h-8.16V7.9448H236.8l20.6887,34.602V7.9448Z" style="fill: #0095d5"/>
      <path id="type_CompoundPathItem_6" data-name="type &lt;CompoundPathItem&gt;" d="M271.3266,58.2089,288.811,7.9448h8.0132l17.4822,50.2641h-8.9589L301.922,47.7923H283.7832L280.36,58.2089Zm14.7877-17.701h13.4044l-6.7022-20.3243Z" style="fill: #0095d5"/>
      <path id="type_CompoundPathItem_7" data-name="type &lt;CompoundPathItem&gt;" d="M345.4839,20.11c-2.4777-3.4233-5.1721-5.4633-10.8543-5.4633-5.1722,0-8.2322,2.3311-8.2322,6.5556,0,4.8088,3.7889,6.7021,10.7821,8.2321,10.1255,2.1856,15.37,5.9733,15.37,15.0066,0,7.5033-5.0278,14.4232-17.1188,14.4232-8.5955,0-14.6432-2.6222-18.7954-8.231l6.63-4.59c2.9856,3.57,5.9733,5.4633,11.7277,5.4633,6.9211,0,9.1055-3.0589,9.1055-6.7011,0-4.0066-2.2567-6.4833-10.9988-8.3777-9.69-2.04-15.1532-6.7022-15.1532-15.2254,0-7.5755,4.9533-13.9133,16.7554-13.9133,8.0133,0,13.6232,2.6956,17.191,8.2322Z" style="fill: #0095d5"/>
      <path id="type_CompoundPathItem_8" data-name="type &lt;CompoundPathItem&gt;" d="M109.3234,76.9685c-2.2781,0-3.8168-1.3757-3.8168-4.585V71.0817c0-3.21,1.5387-4.5856,3.8168-4.5856,2.2922,0,3.831,1.3757,3.831,4.5856v1.3018C113.1544,75.5928,111.6156,76.9685,109.3234,76.9685Zm-2.1008-4.585c0,2.2036.74,3.0911,2.1008,3.0911s2.1149-.8875,2.1149-3.0911V71.0817c0-2.2042-.7546-3.0917-2.1149-3.0917s-2.1008.8875-2.1008,3.0917Z" style="fill: #aeadae"/>
      <path id="type_CompoundPathItem_9" data-name="type &lt;CompoundPathItem&gt;" d="M118.1837,73.108v3.7275h-1.716V66.6291h3.4764c2.3519,0,3.7571,1.1245,3.7571,3.2247,0,2.0711-1.3905,3.2542-3.7571,3.2542Zm1.5825-1.4791c1.5683,0,2.219-.6063,2.219-1.7751,0-1.1092-.6507-1.73-2.219-1.73h-1.5825v3.5054Z" style="fill: #aeadae"/>
      <path id="type_CompoundPathItem_10" data-name="type &lt;CompoundPathItem&gt;" d="M132.9172,66.6291v1.4944H128.376v2.6917h4.0974v1.4791H128.376v3.0622h4.5412v1.479H126.66V66.6291Z" style="fill: #aeadae"/>
      <path id="type_CompoundPathItem_11" data-name="type &lt;CompoundPathItem&gt;" d="M143.3606,66.6291V76.8355h-1.5234l-4.1565-6.9374v6.9374h-1.657V66.6291h1.4791l4.2009,7.0261V66.6291Z" style="fill: #aeadae"/>
      <path id="type_CompoundPathItem_12" data-name="type &lt;CompoundPathItem&gt;" d="M157.577,69.1a2.38,2.38,0,0,0-2.2041-1.11c-1.05,0-1.6717.4733-1.6717,1.3313,0,.9762.7694,1.3609,2.1894,1.6717,2.0558.4438,3.1212,1.2126,3.1212,3.0469,0,1.5234-1.0211,2.9286-3.4764,2.9286a4.3657,4.3657,0,0,1-3.8162-1.6711l1.3461-.9319a2.7332,2.7332,0,0,0,2.3815,1.1091c1.4052,0,1.849-.621,1.849-1.3609,0-.8131-.4586-1.3165-2.2337-1.7007-1.9672-.4142-3.0764-1.3609-3.0764-3.0917,0-1.5382,1.0058-2.8252,3.402-2.8252a3.8073,3.8073,0,0,1,3.4906,1.6717Z" style="fill: #aeadae"/>
      <path id="type_CompoundPathItem_13" data-name="type &lt;CompoundPathItem&gt;" d="M168.6415,66.6291v1.4944h-2.9286v8.712h-1.716v-8.712h-2.9435V66.6291Z" style="fill: #aeadae"/>
      <path id="type_CompoundPathItem_14" data-name="type &lt;CompoundPathItem&gt;" d="M174.6931,76.9685c-2.278,0-3.8162-1.3757-3.8162-4.585V71.0817c0-3.21,1.5382-4.5856,3.8162-4.5856,2.2922,0,3.831,1.3757,3.831,4.5856v1.3018C178.5241,75.5928,176.9853,76.9685,174.6931,76.9685Zm-2.1007-4.585c0,2.2036.74,3.0911,2.1007,3.0911s2.1149-.8875,2.1149-3.0911V71.0817c0-2.2042-.7546-3.0917-2.1149-3.0917s-2.1007.8875-2.1007,3.0917Z" style="fill: #aeadae"/>
      <path id="type_CompoundPathItem_15" data-name="type &lt;CompoundPathItem&gt;" d="M187.5026,76.8355l-1.9672-4.1418h-1.982v4.1418h-1.716V66.6291h3.4764c2.3519,0,3.7571,1.0211,3.7571,3.0474a2.6654,2.6654,0,0,1-1.849,2.7365l2.1741,4.4225Zm-2.3075-5.6208c1.45,0,2.16-.3847,2.16-1.5382s-.71-1.553-2.16-1.553h-1.6417v3.0912Z" style="fill: #aeadae"/>
      <path id="type_CompoundPathItem_16" data-name="type &lt;CompoundPathItem&gt;" d="M191.3194,76.8355l3.55-10.2064h1.6268l3.55,10.2064h-1.8189l-.6955-2.1149h-3.6832l-.695,2.1149Zm3.0025-3.5945h2.7218l-1.3609-4.1265Z" style="fill: #aeadae"/>
      <path id="type_CompoundPathItem_17" data-name="type &lt;CompoundPathItem&gt;" d="M209.6924,71.5993v.7842c0,3.2093-1.4649,4.585-3.7572,4.585-2.278,0-3.8162-1.3757-3.8162-4.585V71.1556c0-3.2838,1.5382-4.66,3.8162-4.66a3.493,3.493,0,0,1,3.7123,3.2986h-1.6564a1.9582,1.9582,0,0,0-2.0559-1.8047c-1.3609,0-2.1007.8875-2.1007,3.0917v1.3018c0,2.2036.74,3.0911,2.1007,3.0911,1.3013,0,1.9525-.7693,2.0707-2.3814H205.98V71.5993Z" style="fill: #aeadae"/>
      <path id="type_CompoundPathItem_18" data-name="type &lt;CompoundPathItem&gt;" d="M219.263,66.6291v1.4944h-4.5413v2.6917h4.0975v1.4791h-4.0975v3.0622h4.5413v1.479h-6.2573V66.6291Z" style="fill: #aeadae"/>
    </g>
    <g id="logoMark">
      <polygon id="logoMark_PathItem_" data-name="logoMark &lt;PathItem&gt;" points="74.211 23.299 74.211 39.112 40.356 58.667 40.356 42.855 74.211 23.299" style="fill: #31beec"/>
      <path id="logoMark_PathItem_2" data-name="logoMark &lt;PathItem&gt;" d="M33.878,42.8547V58.6675L0,39.1117V23.2989L15.3085,32.13a.25.25,0,0,0,.0559.0335Z" style="fill: #0095d5"/>
      <polygon id="logoMark_PathItem_3" data-name="logoMark &lt;PathItem&gt;" points="50.811 29.339 37.117 37.251 23.411 29.339 37.117 21.427 50.811 29.339" style="fill: #aeadae"/>
      <polygon id="logoMark_PathItem_4" data-name="logoMark &lt;PathItem&gt;" points="70.984 17.696 57.278 25.608 40.356 15.824 40.356 0 70.984 17.696" style="fill: #0095d5"/>
      <polygon id="logoMark_PathItem_5" data-name="logoMark &lt;PathItem&gt;" points="33.878 0 33.878 15.824 16.933 25.596 3.228 17.696 33.878 0" style="fill: #31beec"/>
    </g>
  </g>
</svg>
