<svg xmlns="http://www.w3.org/2000/svg" viewBox="0 0 739.1694 155.2184">
  <title>truenas_open_storage-logo-full-color-rgb</title>
  <g id="full-rgb">
    <g>
      <polygon id="fullLogo" points="153.645 48.238 153.645 80.976 83.551 121.464 83.551 88.726 153.645 48.238" style="fill: #00597f"/>
      <path id="fullLogo-2" data-name="fullLogo" d="M70.1405,88.7256V121.464L0,80.976V48.2376L31.6944,66.521a.5156.5156,0,0,0,.1158.07Z" style="fill: #2ebeef"/>
      <polygon id="fullLogo-3" data-name="fullLogo" points="105.199 60.744 76.846 77.125 48.47 60.744 76.846 44.363 105.199 60.744" style="fill: #0d96d4"/>
      <polygon id="fullLogo-4" data-name="fullLogo" points="146.963 36.636 118.587 53.017 83.551 32.762 83.551 0 146.963 36.636" style="fill: #2ebeef"/>
      <polygon id="fullLogo-5" data-name="fullLogo" points="70.14 0 70.14 32.762 35.059 52.994 6.682 36.636 70.14 0" style="fill: #00597f"/>
      <g id="type">
        <path id="type_CompoundPathItem_" data-name="type &lt;CompoundPathItem&gt;" d="M273.4606,8.6991V20.4634h-31.672v92.3015h-12.97V20.4634h-31.672V8.6991Z" style="fill: #0d96d4"/>
        <path id="type_CompoundPathItem_2" data-name="type &lt;CompoundPathItem&gt;" d="M314.3274,53.6444c-3.1676-4.3753-7.0876-6.3353-12.6661-6.3353-9.2039,0-16.1374,6.9381-16.1374,18.2492v47.2066H273.456v-75.41h12.0679v7.3912c3.1632-5.2795,8.2931-8.5989,17.4924-8.5989,10.2552,0,16.74,3.469,21.5663,10.2575Z" style="fill: #0d96d4"/>
        <path id="type_CompoundPathItem_3" data-name="type &lt;CompoundPathItem&gt;" d="M392.6034,112.7649H380.5355V105.376c-3.77,5.73-9.0453,8.5966-20.2068,8.5966-16.1374,0-27.4485-8.447-27.4485-29.5625V37.3553h12.0633V84.2606c0,15.2333,8.293,18.5505,17.1933,18.5505,11.3111,0,18.3987-7.9939,18.3987-18.401V37.3553h12.0679Z" style="fill: #0d96d4"/>
        <path id="type_CompoundPathItem_4" data-name="type &lt;CompoundPathItem&gt;" d="M464.0864,101.302c-5.28,9.2016-13.2734,12.6706-26.3926,12.6706-20.2114,0-32.2793-13.1215-32.2793-34.0851V69.9314c0-21.4146,10.1057-33.7838,29.8639-33.7838,19.9077,0,29.8638,12.2174,29.8638,33.7838v7.8443h-47.66v2.1118c0,12.97,6.1858,23.2249,19.305,23.2249,9.8021,0,14.7824-2.864,17.9455-8.4448Zm-46.604-34.0851h35.4424c-.6027-12.6684-6.1812-20.2091-17.6464-20.2091C423.6682,47.0078,418.2347,54.7,417.4824,67.2169Z" style="fill: #0d96d4"/>
        <path id="type_CompoundPathItem_5" data-name="type &lt;CompoundPathItem&gt;" d="M559.252,8.6991V112.7649H543.7173L501.3369,42.03v70.7352H484.4427V8.6991h15.0815l42.8336,71.6393V8.6991Z" style="fill: #00597f"/>
        <path id="type_CompoundPathItem_6" data-name="type &lt;CompoundPathItem&gt;" d="M571.0072,112.7649,607.2064,8.6991h16.5905l36.1947,104.0658H641.4433l-7.0921-21.5663H596.7971L589.71,112.7649Zm30.6161-36.6478h27.7521l-13.876-42.079Z" style="fill: #00597f"/>
        <path id="type_CompoundPathItem_7" data-name="type &lt;CompoundPathItem&gt;" d="M724.541,33.8863c-5.13-7.0876-10.7083-11.3112-22.4726-11.3112-10.7084,0-17.0437,4.8263-17.0437,13.5725,0,9.9561,7.8443,13.876,22.3231,17.0437,20.9636,4.5249,31.8216,12.367,31.8216,31.0693,0,15.5346-10.4093,29.8616-35.4424,29.8616-17.796,0-30.3171-5.429-38.9137-17.0415L678.54,87.5778c6.1812,7.3912,12.367,11.3111,24.2808,11.3111,14.3293,0,18.8519-6.333,18.8519-13.8738,0-8.2953-4.6722-13.4229-22.7718-17.3451-20.0618-4.2235-31.3729-13.876-31.3729-31.5224,0-15.6842,10.2552-28.8058,34.69-28.8058,16.5906,0,28.2053,5.5808,35.592,17.0438Z" style="fill: #00597f"/>
        <path id="type_CompoundPathItem_8" data-name="type &lt;CompoundPathItem&gt;" d="M235.3126,155.2184c-4.7164,0-7.9022-2.8481-7.9022-9.4927V143.03c0-6.6457,3.1858-9.4939,7.9022-9.4939,4.7458,0,7.9316,2.8482,7.9316,9.4939v2.6953C243.2442,152.37,240.0584,155.2184,235.3126,155.2184Zm-4.3493-9.4927c0,4.5622,1.5317,6.4,4.3493,6.4s4.3787-1.8376,4.3787-6.4V143.03c0-4.5634-1.5623-6.401-4.3787-6.401s-4.3493,1.8376-4.3493,6.401Z" style="fill: #666766"/>
        <path id="type_CompoundPathItem_9" data-name="type &lt;CompoundPathItem&gt;" d="M253.6569,147.2257v7.7174H250.104V133.8118h7.1975c4.8693,0,7.7786,2.3282,7.7786,6.6764,0,4.2881-2.8787,6.7375-7.7786,6.7375Zm3.2764-3.0623c3.2469,0,4.594-1.2553,4.594-3.6752,0-2.2965-1.3471-3.5824-4.594-3.5824h-3.2764v7.2576Z" style="fill: #666766"/>
        <path id="type_CompoundPathItem_10" data-name="type &lt;CompoundPathItem&gt;" d="M284.1608,133.8118v3.094h-9.4021v5.5729h8.4833v3.0623h-8.4833v6.34h9.4021v3.0623H271.2059V133.8118Z" style="fill: #666766"/>
        <path id="type_CompoundPathItem_11" data-name="type &lt;CompoundPathItem&gt;" d="M305.7827,133.8118v21.1313h-3.1541L294.0229,140.58v14.3632h-3.43V133.8118h3.0623l8.6975,14.5468V133.8118Z" style="fill: #666766"/>
        <path id="type_CompoundPathItem_12" data-name="type &lt;CompoundPathItem&gt;" d="M335.2161,138.927a4.9278,4.9278,0,0,0-4.5635-2.2976c-2.174,0-3.461.98-3.461,2.7564,0,2.0212,1.5928,2.8176,4.5328,3.4611,4.2564.9188,6.4622,2.5106,6.4622,6.3081,0,3.1541-2.1141,6.0634-7.1975,6.0634-3.6129,0-6.1552-1.1023-7.901-3.46l2.787-1.9294a5.6588,5.6588,0,0,0,4.9305,2.2964c2.9093,0,3.8281-1.2858,3.8281-2.8175,0-1.6836-.9494-2.7258-4.6246-3.5212-4.0728-.8576-6.3693-2.8175-6.3693-6.401,0-3.1846,2.0824-5.8493,7.0434-5.8493,3.3682,0,5.727,1.133,7.2269,3.4611Z" style="fill: #666766"/>
        <path id="type_CompoundPathItem_13" data-name="type &lt;CompoundPathItem&gt;" d="M358.1238,133.8118v3.094H352.06v18.0373h-3.5529V136.9058h-6.094v-3.094Z" style="fill: #666766"/>
        <path id="type_CompoundPathItem_14" data-name="type &lt;CompoundPathItem&gt;" d="M370.6528,155.2184c-4.7164,0-7.901-2.8481-7.901-9.4927V143.03c0-6.6457,3.1846-9.4939,7.901-9.4939,4.7458,0,7.9316,2.8482,7.9316,9.4939v2.6953C378.5844,152.37,375.3986,155.2184,370.6528,155.2184Zm-4.3493-9.4927c0,4.5622,1.5317,6.4,4.3493,6.4s4.3787-1.8376,4.3787-6.4V143.03c0-4.5634-1.5623-6.401-4.3787-6.401s-4.3493,1.8376-4.3493,6.401Z" style="fill: #666766"/>
        <path id="type_CompoundPathItem_15" data-name="type &lt;CompoundPathItem&gt;" d="M397.1734,154.9431l-4.0729-8.5751h-4.1034v8.5751h-3.5529V133.8118h7.1975c4.8693,0,7.7787,2.1141,7.7787,6.3093a5.5187,5.5187,0,0,1-3.8282,5.6657l4.5011,9.1563Zm-4.7775-11.6374c3.0022,0,4.4716-.7964,4.4716-3.1846s-1.4694-3.2153-4.4716-3.2153h-3.3988v6.4Z" style="fill: #666766"/>
        <path id="type_CompoundPathItem_16" data-name="type &lt;CompoundPathItem&gt;" d="M405.0755,154.9431l7.3505-21.1313h3.3681l7.3493,21.1313h-3.7658l-1.44-4.3787h-7.6257l-1.4388,4.3787Zm6.2164-7.4421h5.6352l-2.8176-8.5434Z" style="fill: #666766"/>
        <path id="type_CompoundPathItem_17" data-name="type &lt;CompoundPathItem&gt;" d="M443.1146,144.1022v1.6235c0,6.6446-3.0328,9.4927-7.7787,9.4927-4.7163,0-7.901-2.8481-7.901-9.4927v-2.5423c0-6.7987,3.1847-9.6469,7.901-9.6469,4.287,0,7.0128,2.3894,7.6858,6.8293h-3.4294c-.5211-2.4494-1.8682-3.7364-4.2564-3.7364-2.8175,0-4.3492,1.8376-4.3492,6.401v2.6953c0,4.5622,1.5317,6.4,4.3492,6.4,2.6941,0,4.0423-1.5928,4.287-4.93h-4.1952v-3.0929Z" style="fill: #666766"/>
        <path id="type_CompoundPathItem_18" data-name="type &lt;CompoundPathItem&gt;" d="M462.9294,133.8118v3.094h-9.4021v5.5729h8.4833v3.0623h-8.4833v6.34h9.4021v3.0623H449.9745V133.8118Z" style="fill: #666766"/>
      </g>
    </g>
  </g>
</svg>
