<?xml version="1.0" standalone="no"?>
<!DOCTYPE svg PUBLIC "-//W3C//DTD SVG 20010904//EN"
 "http://www.w3.org/TR/2001/REC-SVG-20010904/DTD/svg10.dtd">
<svg version="1.0" xmlns="http://www.w3.org/2000/svg"
 width="441.000000pt" height="141.000000pt" viewBox="0 0 441.000000 141.000000"
 preserveAspectRatio="xMidYMid meet">
<metadata>
Created by potrace 1.15, written by Peter Selinger 2001-2017
</metadata>
<g transform="translate(0.000000,141.000000) scale(0.100000,-0.100000)"
fill="#000000" stroke="none">
<path d="M531 1256 c-9 -10 -6 -25 10 -62 12 -27 36 -94 54 -149 32 -98 34
-101 79 -125 25 -14 46 -28 46 -31 0 -4 -16 -10 -35 -13 -34 -7 -35 -8 -35
-56 0 -121 -50 -280 -116 -373 -62 -86 -83 -83 417 -78 239 2 437 5 442 8 19
12 1 58 -61 154 -175 268 -381 475 -655 660 -65 43 -122 79 -126 79 -5 0 -14
-6 -20 -14z"/>
<path d="M3784 1066 c-17 -8 -41 -27 -53 -42 -19 -24 -22 -38 -19 -81 5 -62
20 -80 100 -129 67 -41 84 -64 68 -94 -16 -29 -74 -27 -105 4 l-24 25 -26 -30
c-30 -37 -31 -43 -6 -68 40 -40 126 -51 191 -25 50 20 70 56 70 122 0 61 -22
92 -97 134 -65 37 -92 71 -73 93 16 19 64 19 80 0 19 -22 34 -18 59 16 19 25
20 33 9 46 -33 40 -117 54 -174 29z"/>
<path d="M1620 1030 l0 -40 45 0 45 0 0 -185 0 -185 45 0 45 0 0 185 0 185 40
0 40 0 0 40 0 40 -130 0 -130 0 0 -40z"/>
<path d="M2830 845 l0 -225 50 0 49 0 3 137 3 137 94 -137 94 -137 44 0 43 0
0 225 0 225 -45 0 -45 0 0 -142 0 -142 -97 142 -98 142 -47 0 -48 0 0 -225z"/>
<path d="M3400 1038 c-20 -57 -140 -411 -140 -415 0 -1 24 -3 53 -3 l53 0 13
50 13 50 73 0 73 0 13 -50 13 -50 53 0 c29 0 53 2 53 4 0 3 -34 103 -75 223
-41 120 -75 219 -75 220 0 2 -24 3 -54 3 -52 0 -55 -1 -66 -32z"/>
<path d="M1920 770 l0 -150 45 0 45 0 0 84 c0 96 16 129 63 129 32 0 32 0 41
50 l7 37 -37 0 c-21 0 -46 -7 -56 -17 -17 -15 -18 -15 -18 0 0 13 -10 17 -45
17 l-45 0 0 -150z"/>
<path d="M2160 808 c0 -129 9 -155 60 -180 42 -22 89 -23 135 -4 53 22 65 58
65 186 l0 111 -42 -3 -43 -3 -5 -104 c-4 -85 -8 -106 -22 -115 -13 -8 -23 -8
-35 0 -15 9 -18 29 -21 118 l-3 106 -44 0 -45 0 0 -112z"/>
<path d="M2530 883 c-58 -59 -63 -159 -10 -226 51 -64 193 -57 229 12 9 16 5
21 -25 36 -33 16 -37 16 -54 0 -24 -22 -69 -16 -88 13 l-14 22 101 0 101 0 0
33 c-1 49 -34 113 -69 131 -16 9 -53 16 -82 16 -46 0 -55 -4 -89 -37z"/>
<path d="M1810 510 c-42 -42 -15 -130 40 -130 41 0 60 24 60 74 0 69 -56 100
-100 56z"/>
<path d="M3096 514 c-10 -9 -16 -33 -16 -59 0 -51 19 -75 59 -75 39 0 56 24
56 77 0 33 -5 48 -19 59 -26 18 -61 18 -80 -2z"/>
</g>
</svg>
