<?xml version="1.0" encoding="utf-8"?>
<!-- Generator: Adobe Illustrator 24.0.3, SVG Export Plug-In . SVG Version: 6.00 Build 0)  -->
<!-- <svg version="1.1" id="Layer_1" xmlns="http://www.w3.org/2000/svg" xmlns:xlink="http://www.w3.org/1999/xlink" x="0px" y="0px"
	 viewBox="0 0 720 216" style="enable-background:new 0 0 720 216;" xml:space="preserve">
<style type="text/css">
	.st0{fill:#FFFFFF;}
</style>
<g>
	<g>
		<path class="st0" d="M244.94,175.62c0-8.79,3.85-12.57,10.13-12.57c6.3,0,10.15,3.78,10.15,12.57c0,8.76-3.85,12.64-10.15,12.64
			C248.79,188.26,244.94,184.38,244.94,175.62z M261.94,175.62c0-6.95-2.52-9.88-6.88-9.88c-4.33,0-6.81,2.93-6.81,9.88
			c0,6.92,2.48,9.95,6.81,9.95C259.42,185.57,261.94,182.54,261.94,175.62z"/>
		<path class="st0" d="M300.51,171.57c0,5.41-3.34,8.14-8.79,8.14h-4.63v8.21h-3.24v-24.53h7.87
			C297.17,163.39,300.51,166.12,300.51,171.57z M297.21,171.57c0-3.65-1.87-5.52-5.48-5.52h-4.63v11.03h4.63
			C295.34,177.08,297.21,175.18,297.21,171.57z"/>
		<path class="st0" d="M333.54,185.27v2.66h-14.89v-24.53h14.68v2.66h-11.44v7.8h9.12v2.66h-9.12v8.76H333.54z"/>
		<path class="st0" d="M369.57,163.39v24.53h-2.66c-1.94-7.33-7.02-15.57-11.92-19.86v19.86h-3.13v-24.53h2.25
			c5.25,4.16,9.64,10.23,12.33,15.81v-15.81H369.57z"/>
		<path class="st0" d="M418.45,165.88c-3.51,0-4.71,1.63-4.71,3.75c0,2.04,1.47,3.27,5.25,4.15c4.87,1.16,7.4,3.17,7.4,7.26
			c0,4.15-3.27,7.22-8.83,7.22c-2.28,0-4.29-0.37-5.89-0.99c-1.12-0.41-1.4-0.89-1.4-1.63c0-0.68,0.24-1.5,0.68-2.14
			c2.25,1.29,4.4,1.94,6.71,1.94c3.68,0,5.35-1.6,5.35-4.02c0-2.28-1.4-3.71-5.72-4.74c-4.47-1.02-6.89-3.14-6.89-6.68
			c0-3.79,2.53-6.95,8.07-6.95c2.08,0,3.58,0.24,5.18,0.71c1.12,0.31,1.43,0.78,1.43,1.5c0,0.71-0.27,1.53-0.68,2.14
			C422.54,166.39,420.63,165.88,418.45,165.88z"/>
		<path class="st0" d="M460.77,166.15h-8.07v21.77h-3.23v-21.77h-8.08v-2.76h19.39V166.15z"/>
		<path class="st0" d="M475.88,175.62c0-8.79,3.85-12.57,10.12-12.57c6.3,0,10.15,3.78,10.15,12.57c0,8.76-3.85,12.64-10.15,12.64
			C479.73,188.26,475.88,184.38,475.88,175.62z M492.88,175.62c0-6.95-2.52-9.88-6.88-9.88c-4.32,0-6.81,2.93-6.81,9.88
			c0,6.92,2.49,9.95,6.81,9.95C490.36,185.57,492.88,182.54,492.88,175.62z"/>
		<path class="st0" d="M523.72,179.2c-1.02-0.92-1.67-1.16-2.69-1.16h-2.99v9.88h-3.24v-24.53h7.76c5.42,0,8.66,2.18,8.66,6.75
			c0,4.53-3.17,6.37-6.48,6.94v0.11c0.86,0.27,1.74,0.81,2.63,1.7c2.25,2.08,3.99,5.52,4.6,9.03h-3.51
			C527.57,184.14,526.04,181.24,523.72,179.2z M522.6,166.05h-4.56v9.4h3.84c3.21,0,6.03-1.32,6.03-4.94
			C527.91,167.51,526,166.05,522.6,166.05z"/>
		<path class="st0" d="M564.42,181.75h-11.25c-0.3,1.98-0.51,4.05-0.61,6.17h-3.38c0.62-9.84,3.68-19.39,8.15-24.53h2.93
			c4.43,5.15,7.6,14.69,8.15,24.53h-3.34C564.93,185.81,564.72,183.73,564.42,181.75z M563.94,179.1
			c-0.99-5.04-2.69-9.51-5.15-13.08c-2.45,3.58-4.12,8.04-5.14,13.08H563.94z"/>
		<path class="st0" d="M595.76,165.74c-4.46,0-7.15,2.93-7.15,9.88c0,6.92,2.49,9.95,6.81,9.95c3.38,0,5.52-2.01,5.52-5.92
			c0-1.78-0.2-3.58-0.68-5.49h3.27c0.41,1.81,0.61,3.68,0.61,5.59c0,5.45-3.27,8.51-8.69,8.51c-6.3,0-10.15-3.88-10.15-12.64
			c0-8.69,4.09-12.57,10.25-12.57c2.52,0,4.53,0.34,6.27,0.95c0.82,0.27,1.06,0.65,1.06,1.33c0,0.75-0.27,1.53-0.65,2.14
			C600.23,166.35,597.98,165.74,595.76,165.74z"/>
		<path class="st0" d="M637.68,185.27v2.66h-14.89v-24.53h14.69v2.66h-11.45v7.8h9.13v2.66h-9.13v8.76H637.68z"/>
	</g>
	<g>
		<path class="st0" d="M254.12,79.94v55.43h-15.9V79.94h-14.97V66.53h45.83v13.41H254.12z"/>
		<path class="st0" d="M276.9,89.34h14.87v7.22c1.34-2.58,3.4-4.96,5.78-6.4c2.48-1.55,5.06-1.96,7.94-1.96
			c1.86,0,3.2,0.21,4.86,0.72l-0.83,13.94c-1.96-1.04-4.13-1.66-6.71-1.66c-3.2,0-5.58,1.14-7.43,3.1c-3.3,3.5-3.61,8.46-3.61,12.38
			v18.68H276.9V89.34z"/>
		<path class="st0" d="M336.85,89.34v25.39c0,2.07,0.2,5.27,2.58,7.43c1.04,0.93,2.89,2.17,6.2,2.17c2.78,0,4.95-0.93,6.3-2.17
			c2.17-2.07,2.48-5.16,2.48-7.43V89.34h14.87v26.83c0,5.27-0.52,10.22-5.16,14.76c-5.27,5.16-13.01,5.99-18.48,5.99
			c-5.68,0-13.31-0.83-18.58-5.99c-4.23-4.13-5.06-8.77-5.06-13.83V89.34H336.85z"/>
		<path class="st0" d="M433.41,114.94h-34.37c0,2.48,0.93,5.78,2.78,7.84c2.27,2.48,5.37,2.89,7.64,2.89c2.17,0,4.43-0.42,5.99-1.35
			c0.2-0.1,1.96-1.24,3.2-3.81l14.04,1.44c-2.07,6.51-6.2,9.91-8.88,11.56c-4.43,2.68-9.39,3.4-14.55,3.4
			c-6.92,0-13-1.24-18.37-6.61c-4.03-4.02-6.92-10.12-6.92-17.75c0-6.61,2.37-13.42,7.02-18.16c5.58-5.58,12.49-6.61,17.65-6.61
			s12.59,0.93,18.27,6.92c5.47,5.78,6.5,13,6.5,18.68V114.94z M419.69,106.06c-0.11-0.41-0.83-3.3-2.99-5.36
			c-1.66-1.55-4.03-2.58-7.02-2.58c-3.81,0-6.09,1.55-7.53,2.99c-1.14,1.24-2.17,2.89-2.58,4.95H419.69z"/>
		<path class="st0" d="M449.9,135.37V66.53h13.83l37.37,44.39V66.53H517v68.85h-13.84L465.8,90.78v44.59H449.9z"/>
		<path class="st0" d="M577.95,122.37h-26.01l-5.26,13h-16.52l27.76-68.85h14.56l27.14,68.85h-16.52L577.95,122.37z M573.61,110.19
			l-8.46-23.12l-8.56,23.12H573.61z"/>
		<path class="st0" d="M648.3,83.35c-5.16-4.65-9.6-4.96-11.56-4.96c-2.17,0-4.85,0.31-6.71,2.37c-1.03,1.04-1.75,2.58-1.75,4.34
			c0,1.65,0.51,2.89,1.55,3.81c1.65,1.55,4.02,2.17,8.67,3.92l5.16,1.96c2.99,1.14,6.71,2.68,9.39,5.26
			c4.03,3.82,5.06,8.78,5.06,12.8c0,7.12-2.48,13.31-6.09,17.03c-6.1,6.4-14.97,7.02-19.51,7.02c-4.96,0-9.29-0.72-13.63-2.89
			c-3.5-1.76-7.53-4.96-10.11-7.54l8.25-11.35c1.76,1.75,4.54,4.12,6.4,5.26c2.68,1.66,5.48,2.48,8.67,2.48
			c2.07,0,4.96-0.41,7.22-2.37c1.35-1.14,2.48-2.99,2.48-5.58c0-2.27-0.93-3.71-2.37-4.96c-1.86-1.55-6.09-3.09-8.05-3.81
			l-5.68-1.96c-3.2-1.14-6.92-2.58-9.6-5.47c-3.61-3.82-4.13-8.67-4.13-11.97c0-6.09,1.86-11.25,5.99-15.48
			c4.85-4.96,10.64-6.3,17.03-6.3c4.75,0,12.38,0.82,20.44,6.81L648.3,83.35z"/>
	</g>
	<g>
		<g>
			<polygon class="st0" points="657.21,67.65 660.93,67.65 660.93,77.6 662.42,77.6 662.42,67.65 666.15,67.65 666.15,66.32 
				657.21,66.32 			"/>
		</g>
		<g>
			<path class="st0" d="M676.39,66.32l-2.7,7.85c-0.27,0.79-0.47,1.39-0.6,1.8c-0.12-0.37-0.29-0.92-0.54-1.67l-2.67-7.99h-2.25
				V77.6h1.44v-9.6l3.26,9.6h1.35l3.28-9.44v9.44h1.44V66.32H676.39z"/>
		</g>
	</g>
	<g>
		<path class="st0" d="M180.13,171.37C130.28,85.85,62.14,42.83,34.49,25.87c-3.25-1.99-7.06,1.49-5.37,4.91
			c5.19,10.46,12.46,27.42,17.62,48.76c0.26,1.1,1.01,2.05,2.03,2.54c0,0,6.94,3.13,12.37,5.89c5.44,2.76,2.81,5.44,0.52,5.78
			c-2.29,0.34-8.11,1.2-8.11,1.2c-2,0.35-3.3,2.15-3.08,4.17c2.56,24.29-7.97,58.67-24.45,77.44c-2.21,2.51-0.58,6.41,2.76,6.41
			l145.03-0.32C183.43,182.97,183.82,177.69,180.13,171.37z M164.37,174.08H84.03c-9.17,0-8.33-0.68,0.08-1.53
			c10.01-1.01,22.06-2.25,26.83-2.85c13.98-1.76,22.68-6.25,16.65-22.29c0,0-13.17-42.93-65.72-89.64
			c-4.34-3.85-8.48-7.76,0.42-0.35c21.88,18.21,65.24,57.83,103.25,114.05C166.6,173.05,165.47,174.08,164.37,174.08z"/>
	</g>
</g>
</svg> -->
<svg xmlns="http://www.w3.org/2000/svg" viewBox="0 0 132.1779 104.4929">
  <title>truenas_core-logo-mark-reverse-rgb</title>
  <g id="white-rgb">
    <g id="logoMark">
      <polygon id="logoMark_PathItem_" data-name="logoMark &lt;PathItem&gt;" points="132.178 41.498 132.178 69.662 71.878 104.493 71.878 76.329 132.178 41.498" style="fill: #fff"/>
      <path id="logoMark_PathItem_2" data-name="logoMark &lt;PathItem&gt;" d="M60.34,76.3288v28.1641L0,69.6619V41.4978L27.266,57.2266a.439.439,0,0,0,.1.06Z" style="fill: #fff"/>
      <polygon id="logoMark_PathItem_3" data-name="logoMark &lt;PathItem&gt;" points="90.5 52.256 66.109 66.349 41.697 52.256 66.109 38.164 90.5 52.256" style="fill: #fff"/>
      <polygon id="logoMark_PathItem_4" data-name="logoMark &lt;PathItem&gt;" points="126.429 31.518 102.018 45.61 71.878 28.184 71.878 0 126.429 31.518" style="fill: #fff"/>
      <polygon id="logoMark_PathItem_5" data-name="logoMark &lt;PathItem&gt;" points="60.34 0 60.34 28.184 30.16 45.59 5.749 31.518 60.34 0" style="fill: #fff"/>
    </g>
  </g>
</svg>
